solid windmill fin 2
facet normal 0.974002198998002 -0.0 0.226538553776297
outer loop
vertex 1.39717764613271 30.0 17.1853464717798
vertex 1.09277813210273 -30.0 18.4941117618235
vertex 1.39717764613271 -30.0 17.1853464717798
endloop
endfacet
facet normal 0.974002198998002 -0.0 0.226538553776297
outer loop
vertex 1.09277813210273 -30.0 18.4941117618235
vertex 1.39717764613271 30.0 17.1853464717798
vertex 1.09277813210273 30.0 18.4941117618235
endloop
endfacet
facet normal 0.976105121695202 -0.0 0.217298852736029
outer loop
vertex 1.68961060455447 30.0 15.8717394054106
vertex 1.39717764613271 -30.0 17.1853464717798
vertex 1.68961060455447 -30.0 15.8717394054106
endloop
endfacet
facet normal 0.976105121695202 -0.0 0.217298852736029
outer loop
vertex 1.39717764613271 -30.0 17.1853464717798
vertex 1.68961060455447 30.0 15.8717394054106
vertex 1.39717764613271 30.0 17.1853464717798
endloop
endfacet
facet normal 0.978114468009681 -0.0 0.208067507002267
outer loop
vertex 1.97003370642887 30.0 14.5534850702706
vertex 1.68961060455447 -30.0 15.8717394054106
vertex 1.97003370642887 -30.0 14.5534850702706
endloop
endfacet
facet normal 0.978114468009681 -0.0 0.208067507002267
outer loop
vertex 1.68961060455447 -30.0 15.8717394054106
vertex 1.97003370642887 30.0 14.5534850702706
vertex 1.68961060455447 30.0 15.8717394054106
endloop
endfacet
facet normal -6.95821211563038e-032 1.0 -2.23452027780009e-031
outer loop
vertex -1.82161907604575 30.0 1.86370330515627
vertex 0.388228567653784 30.0 2.41481456572267
vertex 0.776457135307565 30.0 2.36370330515627
endloop
endfacet
facet normal -6.95821211563038e-032 1.0 -2.23452027780009e-031
outer loop
vertex 0.388228567653784 30.0 2.41481456572267
vertex -1.82161907604575 30.0 1.86370330515627
vertex -2.12132034355964 30.0 2.82842712474619
endloop
endfacet
facet normal -6.95821211563038e-032 1.0 -2.23452027780009e-031
outer loop
vertex 0.388228567653784 30.0 2.41481456572267
vertex -2.12132034355964 30.0 2.82842712474619
vertex 0.0264571353075654 30.0 2.56466519947961
endloop
endfacet
facet normal -6.95821211563038e-032 1.0 -2.23452027780009e-031
outer loop
vertex 0.0264571353075654 30.0 2.56466519947961
vertex -2.12132034355964 30.0 2.82842712474619
vertex -0.284203036472256 30.0 2.80304313337645
endloop
endfacet
facet normal -6.95821211563038e-032 1.0 -2.23452027780009e-031
outer loop
vertex -0.284203036472256 30.0 2.80304313337645
vertex -2.12132034355964 30.0 2.82842712474619
vertex -0.522580970369092 30.0 3.11370330515627
endloop
endfacet
facet normal -6.95821211563038e-032 1.0 -2.23452027780009e-031
outer loop
vertex -0.522580970369092 30.0 3.11370330515627
vertex -2.12132034355964 30.0 2.82842712474619
vertex -2.22354286469244 30.0 3.86370330515627
endloop
endfacet
facet normal -6.95821211563038e-032 1.0 -2.23452027780009e-031
outer loop
vertex -0.522580970369092 30.0 3.11370330515627
vertex -2.22354286469244 30.0 3.86370330515627
vertex -0.672431604126037 30.0 3.47547473750249
endloop
endfacet
facet normal -6.95821211563038e-032 1.0 -2.23452027780009e-031
outer loop
vertex -0.672431604126037 30.0 3.47547473750249
vertex -2.22354286469244 30.0 3.86370330515627
vertex -0.723542864692435 30.0 3.86370330515627
endloop
endfacet
facet normal -6.95821211563038e-032 1.0 -2.23452027780009e-031
outer loop
vertex -0.723542864692435 30.0 3.86370330515627
vertex -2.22354286469244 30.0 3.86370330515627
vertex -0.672431604126037 30.0 4.25193187281005
endloop
endfacet
facet normal -6.95821211563038e-032 1.0 -2.23452027780009e-031
outer loop
vertex -0.672431604126037 30.0 4.25193187281005
vertex -2.22354286469244 30.0 3.86370330515627
vertex -2.01814172049211 30.0 5.2056237841776
endloop
endfacet
facet normal -6.95821211563038e-032 1.0 -2.23452027780009e-031
outer loop
vertex -0.672431604126037 30.0 4.25193187281005
vertex -2.01814172049211 30.0 5.2056237841776
vertex -0.522580970369092 30.0 4.61370330515627
endloop
endfacet
facet normal -6.95821211563038e-032 1.0 -2.23452027780009e-031
outer loop
vertex -0.522580970369092 30.0 4.61370330515627
vertex -2.01814172049211 30.0 5.2056237841776
vertex -0.284203036472256 30.0 4.92436347693609
endloop
endfacet
facet normal -6.95821211563038e-032 1.0 -2.23452027780009e-031
outer loop
vertex -0.284203036472256 30.0 4.92436347693609
vertex -2.01814172049211 30.0 5.2056237841776
vertex 0.0264571353075669 30.0 5.16274141083293
endloop
endfacet
facet normal -6.95821211563038e-032 1.0 -2.23452027780009e-031
outer loop
vertex 0.0264571353075669 30.0 5.16274141083293
vertex -2.01814172049211 30.0 5.2056237841776
vertex 0.388228567653786 30.0 5.31259204458987
endloop
endfacet
facet normal -6.95821211563038e-032 1.0 -2.23452027780009e-031
outer loop
vertex 0.388228567653786 30.0 5.31259204458987
vertex -2.01814172049211 30.0 5.2056237841776
vertex -1.80458081172132 30.0 6.54527784568761
endloop
endfacet
facet normal -6.95821211563038e-032 1.0 -2.23452027780009e-031
outer loop
vertex 0.388228567653786 30.0 5.31259204458987
vertex -1.80458081172132 30.0 6.54527784568761
vertex 0.776457135307565 30.0 5.36370330515627
endloop
endfacet
facet normal -6.95821211563038e-032 1.0 -2.23452027780009e-031
outer loop
vertex 0.0 30.0 0.0
vertex 1.55291427061513 30.0 -7.04991620636974e-016
vertex 0.776457135307565 30.0 -0.136296694843727
endloop
endfacet
facet normal -6.95821211563038e-032 1.0 -2.23452027780009e-031
outer loop
vertex 1.55291427061513 30.0 -7.04991620636974e-016
vertex 0.0 30.0 0.0
vertex 2.27645713530756 30.0 0.399601690018518
endloop
endfacet
facet normal -6.95821211563038e-032 1.0 -2.23452027780009e-031
outer loop
vertex 2.27645713530756 30.0 0.399601690018518
vertex 0.0 30.0 0.0
vertex -0.723542864692437 30.0 0.399601690018518
endloop
endfacet
facet normal -6.95821211563038e-032 1.0 -2.23452027780009e-031
outer loop
vertex 2.27645713530756 30.0 0.399601690018518
vertex -0.723542864692437 30.0 0.399601690018518
vertex -1.34486320825208 30.0 1.03527618041008
endloop
endfacet
facet normal -6.95821211563038e-032 1.0 -2.23452027780009e-031
outer loop
vertex 2.27645713530756 30.0 0.399601690018518
vertex -1.34486320825208 30.0 1.03527618041008
vertex 2.89777747886721 30.0 1.03527618041008
endloop
endfacet
facet normal -6.95821211563038e-032 1.0 -2.23452027780009e-031
outer loop
vertex 2.89777747886721 30.0 1.03527618041008
vertex -1.34486320825208 30.0 1.03527618041008
vertex 3.37453334666087 30.0 1.86370330515627
endloop
endfacet
facet normal -6.95821211563038e-032 1.0 -2.23452027780009e-031
outer loop
vertex 3.37453334666087 30.0 1.86370330515627
vertex -1.34486320825208 30.0 1.03527618041008
vertex -1.82161907604575 30.0 1.86370330515627
endloop
endfacet
facet normal -6.95821211563038e-032 1.0 -2.23452027780009e-031
outer loop
vertex 3.37453334666087 30.0 1.86370330515627
vertex -1.82161907604575 30.0 1.86370330515627
vertex 3.67423461417476 30.0 2.82842712474619
endloop
endfacet
facet normal -6.95821211563038e-032 1.0 -2.23452027780009e-031
outer loop
vertex 3.67423461417476 30.0 2.82842712474619
vertex -1.82161907604575 30.0 1.86370330515627
vertex 1.16468570296135 30.0 2.41481456572267
endloop
endfacet
facet normal -6.95821211563038e-032 1.0 -2.23452027780009e-031
outer loop
vertex 1.16468570296135 30.0 2.41481456572267
vertex -1.82161907604575 30.0 1.86370330515627
vertex 0.776457135307565 30.0 2.36370330515627
endloop
endfacet
facet normal -6.95821211563038e-032 1.0 -2.23452027780009e-031
outer loop
vertex 3.67423461417476 30.0 2.82842712474619
vertex 1.16468570296135 30.0 2.41481456572267
vertex 1.52645713530757 30.0 2.56466519947961
endloop
endfacet
facet normal -6.95821211563038e-032 1.0 -2.23452027780009e-031
outer loop
vertex 3.67423461417476 30.0 2.82842712474619
vertex 1.52645713530757 30.0 2.56466519947961
vertex 1.83711730708739 30.0 2.80304313337645
endloop
endfacet
facet normal -6.95821211563038e-032 1.0 -2.23452027780009e-031
outer loop
vertex 3.67423461417476 30.0 2.82842712474619
vertex 1.83711730708739 30.0 2.80304313337645
vertex 2.07549524098422 30.0 3.11370330515627
endloop
endfacet
facet normal -6.95821211563038e-032 1.0 -2.23452027780009e-031
outer loop
vertex 3.67423461417476 30.0 2.82842712474619
vertex 2.07549524098422 30.0 3.11370330515627
vertex 3.77645713530755 30.0 3.86370330515627
endloop
endfacet
facet normal -6.95821211563038e-032 1.0 -2.23452027780009e-031
outer loop
vertex 3.77645713530755 30.0 3.86370330515627
vertex 2.07549524098422 30.0 3.11370330515627
vertex 2.22534587474117 30.0 3.47547473750249
endloop
endfacet
facet normal -6.95821211563038e-032 1.0 -2.23452027780009e-031
outer loop
vertex 3.77645713530755 30.0 3.86370330515627
vertex 2.22534587474117 30.0 3.47547473750249
vertex 2.27645713530757 30.0 3.86370330515627
endloop
endfacet
facet normal -6.95821211563038e-032 1.0 -2.23452027780009e-031
outer loop
vertex 3.77645713530755 30.0 3.86370330515627
vertex 2.27645713530757 30.0 3.86370330515627
vertex 2.22534587474117 30.0 4.25193187281005
endloop
endfacet
facet normal -6.95821211563038e-032 1.0 -2.23452027780009e-031
outer loop
vertex 3.77645713530755 30.0 3.86370330515627
vertex 2.22534587474117 30.0 4.25193187281005
vertex 3.5934570973777 30.0 5.21205703652063
endloop
endfacet
facet normal -6.95821211563038e-032 1.0 -2.23452027780009e-031
outer loop
vertex 3.5934570973777 30.0 5.21205703652063
vertex 2.22534587474117 30.0 4.25193187281005
vertex 2.07549524098422 30.0 4.61370330515627
endloop
endfacet
facet normal -6.95821211563038e-032 1.0 -2.23452027780009e-031
outer loop
vertex 3.5934570973777 30.0 5.21205703652063
vertex 2.07549524098422 30.0 4.61370330515627
vertex 1.83711730708739 30.0 4.92436347693609
endloop
endfacet
facet normal -6.95821211563038e-032 1.0 -2.23452027780009e-031
outer loop
vertex 3.5934570973777 30.0 5.21205703652063
vertex 1.83711730708739 30.0 4.92436347693609
vertex 1.52645713530757 30.0 5.16274141083293
endloop
endfacet
facet normal -6.95821211563038e-032 1.0 -2.23452027780009e-031
outer loop
vertex 3.5934570973777 30.0 5.21205703652063
vertex 1.52645713530757 30.0 5.16274141083293
vertex 1.16468570296135 30.0 5.31259204458987
endloop
endfacet
facet normal -6.95821211563038e-032 1.0 -2.23452027780009e-031
outer loop
vertex 3.5934570973777 30.0 5.21205703652063
vertex 1.16468570296135 30.0 5.31259204458987
vertex 3.39816529780479 30.0 6.55734189253479
endloop
endfacet
facet normal -6.95821211563038e-032 1.0 -2.23452027780009e-031
outer loop
vertex 3.39816529780479 30.0 6.55734189253479
vertex 1.16468570296135 30.0 5.31259204458987
vertex 0.776457135307565 30.0 5.36370330515627
endloop
endfacet
facet normal -6.95821211563038e-032 1.0 -2.23452027780009e-031
outer loop
vertex 3.39816529780479 30.0 6.55734189253479
vertex 0.776457135307565 30.0 5.36370330515627
vertex -1.80458081172132 30.0 6.54527784568761
endloop
endfacet
facet normal -6.95821211563038e-032 1.0 -2.23452027780009e-031
outer loop
vertex 3.39816529780479 30.0 6.55734189253479
vertex -1.80458081172132 30.0 6.54527784568761
vertex -1.58287419974832 30.0 7.88257728361307
endloop
endfacet
facet normal -6.95821211563038e-032 1.0 -2.23452027780009e-031
outer loop
vertex 3.39816529780479 30.0 6.55734189253479
vertex -1.58287419974832 30.0 7.88257728361307
vertex 3.19061065370674 30.0 7.89935867507141
endloop
endfacet
facet normal -6.95821211563038e-032 1.0 -2.23452027780009e-031
outer loop
vertex 3.19061065370674 30.0 7.89935867507141
vertex -1.58287419974832 30.0 7.88257728361307
vertex -1.35303648227435 30.0 9.21743404691451
endloop
endfacet
facet normal -6.95821211563038e-032 1.0 -2.23452027780009e-031
outer loop
vertex 3.19061065370674 30.0 7.89935867507141
vertex -1.35303648227435 30.0 9.21743404691451
vertex 2.97082389797719 30.0 9.23790866991119
endloop
endfacet
facet normal -6.95821211563038e-032 1.0 -2.23452027780009e-031
outer loop
vertex 2.97082389797719 30.0 9.23790866991119
vertex -1.35303648227435 30.0 9.21743404691451
vertex -1.11508279237239 30.0 10.5497602453841
endloop
endfacet
facet normal -6.95821211563038e-032 1.0 -2.23452027780009e-031
outer loop
vertex 2.97082389797719 30.0 9.23790866991119
vertex -1.11508279237239 30.0 10.5497602453841
vertex 2.73883757473489 30.0 10.5727936761667
endloop
endfacet
facet normal -6.95821211563038e-032 1.0 -2.23452027780009e-031
outer loop
vertex 2.73883757473489 30.0 10.5727936761667
vertex -1.11508279237239 30.0 10.5497602453841
vertex -0.869028797490645 30.0 11.8794681554324
endloop
endfacet
facet normal -6.95821211563038e-032 1.0 -2.23452027780009e-031
outer loop
vertex 2.73883757473489 30.0 10.5727936761667
vertex -0.869028797490645 30.0 11.8794681554324
vertex 2.49468603450492 30.0 11.9038160356304
endloop
endfacet
facet normal -6.95821211563038e-032 1.0 -2.23452027780009e-031
outer loop
vertex 2.49468603450492 30.0 11.9038160356304
vertex -0.869028797490645 30.0 11.8794681554324
vertex -0.614890698421168 30.0 13.2064702258647
endloop
endfacet
facet normal -6.95821211563038e-032 1.0 -2.23452027780009e-031
outer loop
vertex 2.49468603450492 30.0 11.9038160356304
vertex -0.614890698421168 30.0 13.2064702258647
vertex 2.23840542913229 30.0 13.2307786620418
endloop
endfacet
facet normal -6.95821211563038e-032 1.0 -2.23452027780009e-031
outer loop
vertex 2.23840542913229 30.0 13.2307786620418
vertex -0.614890698421168 30.0 13.2064702258647
vertex -0.352685228232904 30.0 14.5306790836451
endloop
endfacet
facet normal -6.95821211563038e-032 1.0 -2.23452027780009e-031
outer loop
vertex 2.23840542913229 30.0 13.2307786620418
vertex -0.352685228232904 30.0 14.5306790836451
vertex 1.97003370642887 30.0 14.5534850702706
endloop
endfacet
facet normal -6.95821211563038e-032 1.0 -2.23452027780009e-031
outer loop
vertex 1.97003370642887 30.0 14.5534850702706
vertex -0.352685228232904 30.0 14.5306790836451
vertex -0.0824296511702061 30.0 15.8520075396496
endloop
endfacet
facet normal -6.95821211563038e-032 1.0 -2.23452027780009e-031
outer loop
vertex 1.97003370642887 30.0 14.5534850702706
vertex -0.0824296511702061 30.0 15.8520075396496
vertex 1.68961060455447 30.0 15.8717394054106
endloop
endfacet
facet normal -6.95821211563038e-032 1.0 -2.23452027780009e-031
outer loop
vertex 1.68961060455447 30.0 15.8717394054106
vertex -0.0824296511702061 30.0 15.8520075396496
vertex 0.195858238484074 30.0 17.1703685944071
endloop
endfacet
facet normal -6.95821211563038e-032 1.0 -2.23452027780009e-031
outer loop
vertex 1.68961060455447 30.0 15.8717394054106
vertex 0.195858238484074 30.0 17.1703685944071
vertex 1.39717764613271 30.0 17.1853464717798
endloop
endfacet
facet normal -6.95821211563038e-032 1.0 -2.23452027780009e-031
outer loop
vertex 1.39717764613271 30.0 17.1853464717798
vertex 0.195858238484074 30.0 17.1703685944071
vertex 0.482160117580098 30.0 18.4856754438271
endloop
endfacet
facet normal -6.95821211563038e-032 1.0 -2.23452027780009e-031
outer loop
vertex 1.39717764613271 30.0 17.1853464717798
vertex 0.482160117580098 30.0 18.4856754438271
vertex 1.09277813210273 30.0 18.4941117618235
endloop
endfacet
facet normal -6.95821211563038e-032 1.0 -2.23452027780009e-031
outer loop
vertex 1.09277813210273 30.0 18.4941117618235
vertex 0.482160117580098 30.0 18.4856754438271
vertex 0.776457135307565 30.0 19.7978414849154
endloop
endfacet
facet normal 0.980031093119743 -0.0 0.198844302202811
outer loop
vertex 2.23840542913229 30.0 13.2307786620418
vertex 1.97003370642887 -30.0 14.5534850702706
vertex 2.23840542913229 -30.0 13.2307786620418
endloop
endfacet
facet normal 0.980031093119743 -0.0 0.198844302202811
outer loop
vertex 1.97003370642887 -30.0 14.5534850702706
vertex 2.23840542913229 30.0 13.2307786620418
vertex 1.97003370642887 30.0 14.5534850702706
endloop
endfacet
facet normal 0.981855814496248 -0.0 0.189629005006906
outer loop
vertex 2.49468603450492 30.0 11.9038160356304
vertex 2.23840542913229 -30.0 13.2307786620418
vertex 2.49468603450492 -30.0 11.9038160356304
endloop
endfacet
facet normal 0.981855814496248 -0.0 0.189629005006906
outer loop
vertex 2.23840542913229 -30.0 13.2307786620418
vertex 2.49468603450492 30.0 11.9038160356304
vertex 2.23840542913229 30.0 13.2307786620418
endloop
endfacet
facet normal 0.983589411968857 -0.0 0.180421364208227
outer loop
vertex 2.73883757473489 30.0 10.5727936761667
vertex 2.49468603450492 -30.0 11.9038160356304
vertex 2.73883757473489 -30.0 10.5727936761667
endloop
endfacet
facet normal 0.983589411968857 -0.0 0.180421364208227
outer loop
vertex 2.49468603450492 -30.0 11.9038160356304
vertex 2.73883757473489 30.0 10.5727936761667
vertex 2.49468603450492 30.0 11.9038160356304
endloop
endfacet
facet normal 0.985232627800563 -0.0 0.171221111774213
outer loop
vertex 2.97082389797719 30.0 9.23790866991119
vertex 2.73883757473489 -30.0 10.5727936761667
vertex 2.97082389797719 -30.0 9.23790866991119
endloop
endfacet
facet normal 0.985232627800563 -0.0 0.171221111774213
outer loop
vertex 2.73883757473489 -30.0 10.5727936761667
vertex 2.97082389797719 30.0 9.23790866991119
vertex 2.73883757473489 30.0 10.5727936761667
endloop
endfacet
facet normal -0.995160625460966 0.0 -0.098261536381934
outer loop
vertex -2.22354286469244 30.0 3.86370330515627
vertex -2.12132034355964 -30.0 2.82842712474619
vertex -2.22354286469244 -30.0 3.86370330515627
endloop
endfacet
facet normal -0.995160625460966 0.0 -0.098261536381934
outer loop
vertex -2.12132034355964 -30.0 2.82842712474619
vertex -2.22354286469244 30.0 3.86370330515627
vertex -2.12132034355964 30.0 2.82842712474619
endloop
endfacet
facet normal -0.988487447615135 0.0 0.151302894576794
outer loop
vertex -2.01814172049211 30.0 5.2056237841776
vertex -2.22354286469244 -30.0 3.86370330515627
vertex -2.01814172049211 -30.0 5.2056237841776
endloop
endfacet
facet normal -0.988487447615135 0.0 0.151302894576794
outer loop
vertex -2.22354286469244 -30.0 3.86370330515627
vertex -2.01814172049211 30.0 5.2056237841776
vertex -2.22354286469244 30.0 3.86370330515627
endloop
endfacet
facet normal -0.987530601879821 0.0 0.15742715887317
outer loop
vertex -1.80458081172132 30.0 6.54527784568761
vertex -2.01814172049211 -30.0 5.2056237841776
vertex -1.80458081172132 -30.0 6.54527784568761
endloop
endfacet
facet normal -0.987530601879821 0.0 0.15742715887317
outer loop
vertex -2.01814172049211 -30.0 5.2056237841776
vertex -1.80458081172132 30.0 6.54527784568761
vertex -2.01814172049211 30.0 5.2056237841776
endloop
endfacet
facet normal -0.986534319971451 0.0 0.163554380921047
outer loop
vertex -1.58287419974832 30.0 7.88257728361307
vertex -1.80458081172132 -30.0 6.54527784568761
vertex -1.58287419974832 -30.0 7.88257728361307
endloop
endfacet
facet normal -0.986534319971451 0.0 0.163554380921047
outer loop
vertex -1.80458081172132 -30.0 6.54527784568761
vertex -1.58287419974832 30.0 7.88257728361307
vertex -1.80458081172132 30.0 6.54527784568761
endloop
endfacet
facet normal -0.985498411389336 0.0 0.169684652072884
outer loop
vertex -1.35303648227435 30.0 9.21743404691451
vertex -1.58287419974832 -30.0 7.88257728361307
vertex -1.35303648227435 -30.0 9.21743404691451
endloop
endfacet
facet normal -0.985498411389336 0.0 0.169684652072884
outer loop
vertex -1.58287419974832 -30.0 7.88257728361307
vertex -1.35303648227435 30.0 9.21743404691451
vertex -1.58287419974832 30.0 7.88257728361307
endloop
endfacet
facet normal -0.984422678252661 0.0 0.175818060909162
outer loop
vertex -1.11508279237239 30.0 10.5497602453841
vertex -1.35303648227435 -30.0 9.21743404691451
vertex -1.11508279237239 -30.0 10.5497602453841
endloop
endfacet
facet normal -0.984422678252661 0.0 0.175818060909162
outer loop
vertex -1.35303648227435 -30.0 9.21743404691451
vertex -1.11508279237239 30.0 10.5497602453841
vertex -1.35303648227435 30.0 9.21743404691451
endloop
endfacet
facet normal -0.983306915288645 0.0 0.18195469311213
outer loop
vertex -0.869028797490645 30.0 11.8794681554324
vertex -1.11508279237239 -30.0 10.5497602453841
vertex -0.869028797490645 -30.0 11.8794681554324
endloop
endfacet
facet normal -0.983306915288645 0.0 0.18195469311213
outer loop
vertex -1.11508279237239 -30.0 10.5497602453841
vertex -0.869028797490645 30.0 11.8794681554324
vertex -1.11508279237239 30.0 10.5497602453841
endloop
endfacet
facet normal -0.982150909821008 0.0 0.188094631336905
outer loop
vertex -0.614890698421168 30.0 13.2064702258647
vertex -0.869028797490645 -30.0 11.8794681554324
vertex -0.614890698421168 -30.0 13.2064702258647
endloop
endfacet
facet normal -0.982150909821008 0.0 0.188094631336905
outer loop
vertex -0.869028797490645 -30.0 11.8794681554324
vertex -0.614890698421168 30.0 13.2064702258647
vertex -0.869028797490645 30.0 11.8794681554324
endloop
endfacet
facet normal -0.980954441758731 0.0 0.1942379550804
outer loop
vertex -0.352685228232904 30.0 14.5306790836451
vertex -0.614890698421168 -30.0 13.2064702258647
vertex -0.352685228232904 -30.0 14.5306790836451
endloop
endfacet
facet normal -0.980954441758731 0.0 0.1942379550804
outer loop
vertex -0.614890698421168 -30.0 13.2064702258647
vertex -0.352685228232904 30.0 14.5306790836451
vertex -0.614890698421168 30.0 13.2064702258647
endloop
endfacet
facet normal -0.979717283585404 0.0 0.200384740546871
outer loop
vertex -0.0824296511702061 30.0 15.8520075396496
vertex -0.352685228232904 -30.0 14.5306790836451
vertex -0.0824296511702061 -30.0 15.8520075396496
endloop
endfacet
facet normal -0.979717283585404 0.0 0.200384740546871
outer loop
vertex -0.352685228232904 -30.0 14.5306790836451
vertex -0.0824296511702061 30.0 15.8520075396496
vertex -0.352685228232904 30.0 14.5306790836451
endloop
endfacet
facet normal -0.97843920034899 0.0 0.206535060511353
outer loop
vertex 0.195858238484074 30.0 17.1703685944071
vertex -0.0824296511702061 -30.0 15.8520075396496
vertex 0.195858238484074 -30.0 17.1703685944071
endloop
endfacet
facet normal -0.97843920034899 0.0 0.206535060511353
outer loop
vertex -0.0824296511702061 -30.0 15.8520075396496
vertex 0.195858238484074 30.0 17.1703685944071
vertex -0.0824296511702061 30.0 15.8520075396496
endloop
endfacet
facet normal -0.977119949652357 0.0 0.212688984179659
outer loop
vertex 0.482160117580098 30.0 18.4856754438271
vertex 0.195858238484074 -30.0 17.1703685944071
vertex 0.482160117580098 -30.0 18.4856754438271
endloop
endfacet
facet normal -0.977119949652357 0.0 0.212688984179659
outer loop
vertex 0.195858238484074 -30.0 17.1703685944071
vertex 0.482160117580098 30.0 18.4856754438271
vertex 0.195858238484074 30.0 17.1703685944071
endloop
endfacet
facet normal -0.975759281644483 0.0 0.218846577045753
outer loop
vertex 0.776457135307565 30.0 19.7978414849154
vertex 0.482160117580098 -30.0 18.4856754438271
vertex 0.776457135307565 -30.0 19.7978414849154
endloop
endfacet
facet normal -0.975759281644483 0.0 0.218846577045753
outer loop
vertex 0.482160117580098 -30.0 18.4856754438271
vertex 0.776457135307565 30.0 19.7978414849154
vertex 0.482160117580098 30.0 18.4856754438271
endloop
endfacet
facet normal 0.971804806976268 -0.0 0.235786804418351
outer loop
vertex 1.09277813210273 30.0 18.4941117618235
vertex 0.776457135307565 -30.0 19.7978414849154
vertex 1.09277813210273 -30.0 18.4941117618235
endloop
endfacet
facet normal 0.971804806976268 -0.0 0.235786804418351
outer loop
vertex 0.776457135307565 -30.0 19.7978414849154
vertex 1.09277813210273 30.0 18.4941117618235
vertex 0.776457135307565 30.0 19.7978414849154
endloop
endfacet
facet normal 0.0 -1.0 0.0
outer loop
vertex 1.55291427061513 -30.0 -7.04991620636974e-016
vertex 0.0 -30.0 0.0
vertex 0.776457135307565 -30.0 -0.136296694843727
endloop
endfacet
facet normal 0.0 -1.0 0.0
outer loop
vertex 0.0 -30.0 0.0
vertex 1.55291427061513 -30.0 -7.04991620636974e-016
vertex 2.27645713530756 -30.0 0.399601690018518
endloop
endfacet
facet normal 0.0 -1.0 0.0
outer loop
vertex 0.0 -30.0 0.0
vertex 2.27645713530756 -30.0 0.399601690018518
vertex -0.723542864692437 -30.0 0.399601690018518
endloop
endfacet
facet normal 0.0 -1.0 0.0
outer loop
vertex -0.723542864692437 -30.0 0.399601690018518
vertex 2.27645713530756 -30.0 0.399601690018518
vertex 2.89777747886721 -30.0 1.03527618041008
endloop
endfacet
facet normal 0.0 -1.0 0.0
outer loop
vertex -0.723542864692437 -30.0 0.399601690018518
vertex 2.89777747886721 -30.0 1.03527618041008
vertex -1.34486320825208 -30.0 1.03527618041008
endloop
endfacet
facet normal 0.0 -1.0 0.0
outer loop
vertex -1.34486320825208 -30.0 1.03527618041008
vertex 2.89777747886721 -30.0 1.03527618041008
vertex 3.37453334666087 -30.0 1.86370330515627
endloop
endfacet
facet normal 0.0 -1.0 0.0
outer loop
vertex -1.34486320825208 -30.0 1.03527618041008
vertex 3.37453334666087 -30.0 1.86370330515627
vertex -1.82161907604575 -30.0 1.86370330515627
endloop
endfacet
facet normal 0.0 -1.0 0.0
outer loop
vertex -1.82161907604575 -30.0 1.86370330515627
vertex 3.37453334666087 -30.0 1.86370330515627
vertex 3.67423461417476 -30.0 2.82842712474619
endloop
endfacet
facet normal 0.0 -1.0 0.0
outer loop
vertex -1.82161907604575 -30.0 1.86370330515627
vertex 3.67423461417476 -30.0 2.82842712474619
vertex 1.16468570296135 -30.0 2.41481456572267
endloop
endfacet
facet normal 0.0 -1.0 0.0
outer loop
vertex -1.82161907604575 -30.0 1.86370330515627
vertex 1.16468570296135 -30.0 2.41481456572267
vertex 0.776457135307565 -30.0 2.36370330515627
endloop
endfacet
facet normal 0.0 -1.0 0.0
outer loop
vertex 1.16468570296135 -30.0 2.41481456572267
vertex 3.67423461417476 -30.0 2.82842712474619
vertex 1.52645713530757 -30.0 2.56466519947961
endloop
endfacet
facet normal 0.0 -1.0 0.0
outer loop
vertex 1.52645713530757 -30.0 2.56466519947961
vertex 3.67423461417476 -30.0 2.82842712474619
vertex 1.83711730708739 -30.0 2.80304313337645
endloop
endfacet
facet normal 0.0 -1.0 0.0
outer loop
vertex 1.83711730708739 -30.0 2.80304313337645
vertex 3.67423461417476 -30.0 2.82842712474619
vertex 2.07549524098422 -30.0 3.11370330515627
endloop
endfacet
facet normal 0.0 -1.0 0.0
outer loop
vertex 2.07549524098422 -30.0 3.11370330515627
vertex 3.67423461417476 -30.0 2.82842712474619
vertex 3.77645713530755 -30.0 3.86370330515627
endloop
endfacet
facet normal 0.0 -1.0 0.0
outer loop
vertex 2.07549524098422 -30.0 3.11370330515627
vertex 3.77645713530755 -30.0 3.86370330515627
vertex 2.22534587474117 -30.0 3.47547473750249
endloop
endfacet
facet normal 0.0 -1.0 0.0
outer loop
vertex 2.22534587474117 -30.0 3.47547473750249
vertex 3.77645713530755 -30.0 3.86370330515627
vertex 2.27645713530757 -30.0 3.86370330515627
endloop
endfacet
facet normal 0.0 -1.0 0.0
outer loop
vertex 2.27645713530757 -30.0 3.86370330515627
vertex 3.77645713530755 -30.0 3.86370330515627
vertex 2.22534587474117 -30.0 4.25193187281005
endloop
endfacet
facet normal 0.0 -1.0 0.0
outer loop
vertex 2.22534587474117 -30.0 4.25193187281005
vertex 3.77645713530755 -30.0 3.86370330515627
vertex 3.5934570973777 -30.0 5.21205703652063
endloop
endfacet
facet normal 0.0 -1.0 0.0
outer loop
vertex 2.22534587474117 -30.0 4.25193187281005
vertex 3.5934570973777 -30.0 5.21205703652063
vertex 2.07549524098422 -30.0 4.61370330515627
endloop
endfacet
facet normal 0.0 -1.0 0.0
outer loop
vertex 2.07549524098422 -30.0 4.61370330515627
vertex 3.5934570973777 -30.0 5.21205703652063
vertex 1.83711730708739 -30.0 4.92436347693609
endloop
endfacet
facet normal 0.0 -1.0 0.0
outer loop
vertex 1.83711730708739 -30.0 4.92436347693609
vertex 3.5934570973777 -30.0 5.21205703652063
vertex 1.52645713530756 -30.0 5.16274141083293
endloop
endfacet
facet normal 0.0 -1.0 0.0
outer loop
vertex 1.52645713530756 -30.0 5.16274141083293
vertex 3.5934570973777 -30.0 5.21205703652063
vertex 1.16468570296135 -30.0 5.31259204458987
endloop
endfacet
facet normal 0.0 -1.0 0.0
outer loop
vertex 1.16468570296135 -30.0 5.31259204458987
vertex 3.5934570973777 -30.0 5.21205703652063
vertex 3.39816529780479 -30.0 6.55734189253479
endloop
endfacet
facet normal 0.0 -1.0 0.0
outer loop
vertex 1.16468570296135 -30.0 5.31259204458987
vertex 3.39816529780479 -30.0 6.55734189253479
vertex 0.776457135307565 -30.0 5.36370330515627
endloop
endfacet
facet normal 0.0 -1.0 0.0
outer loop
vertex 0.776457135307565 -30.0 5.36370330515627
vertex 3.39816529780479 -30.0 6.55734189253479
vertex -1.80458081172132 -30.0 6.54527784568761
endloop
endfacet
facet normal 0.0 -1.0 0.0
outer loop
vertex -1.80458081172132 -30.0 6.54527784568761
vertex 3.39816529780479 -30.0 6.55734189253479
vertex -1.58287419974832 -30.0 7.88257728361307
endloop
endfacet
facet normal 0.0 -1.0 0.0
outer loop
vertex -1.58287419974832 -30.0 7.88257728361307
vertex 3.39816529780479 -30.0 6.55734189253479
vertex 3.19061065370674 -30.0 7.89935867507141
endloop
endfacet
facet normal 0.0 -1.0 0.0
outer loop
vertex -1.58287419974832 -30.0 7.88257728361307
vertex 3.19061065370674 -30.0 7.89935867507141
vertex -1.35303648227435 -30.0 9.21743404691451
endloop
endfacet
facet normal 0.0 -1.0 0.0
outer loop
vertex -1.35303648227435 -30.0 9.21743404691451
vertex 3.19061065370674 -30.0 7.89935867507141
vertex 2.97082389797719 -30.0 9.23790866991119
endloop
endfacet
facet normal 0.0 -1.0 0.0
outer loop
vertex -1.35303648227435 -30.0 9.21743404691451
vertex 2.97082389797719 -30.0 9.23790866991119
vertex -1.11508279237239 -30.0 10.5497602453841
endloop
endfacet
facet normal 0.0 -1.0 0.0
outer loop
vertex -1.11508279237239 -30.0 10.5497602453841
vertex 2.97082389797719 -30.0 9.23790866991119
vertex 2.73883757473489 -30.0 10.5727936761667
endloop
endfacet
facet normal 0.0 -1.0 0.0
outer loop
vertex -1.11508279237239 -30.0 10.5497602453841
vertex 2.73883757473489 -30.0 10.5727936761667
vertex -0.869028797490645 -30.0 11.8794681554324
endloop
endfacet
facet normal 0.0 -1.0 0.0
outer loop
vertex -0.869028797490645 -30.0 11.8794681554324
vertex 2.73883757473489 -30.0 10.5727936761667
vertex 2.49468603450492 -30.0 11.9038160356304
endloop
endfacet
facet normal 0.0 -1.0 0.0
outer loop
vertex -0.869028797490645 -30.0 11.8794681554324
vertex 2.49468603450492 -30.0 11.9038160356304
vertex -0.614890698421168 -30.0 13.2064702258647
endloop
endfacet
facet normal 0.0 -1.0 0.0
outer loop
vertex -0.614890698421168 -30.0 13.2064702258647
vertex 2.49468603450492 -30.0 11.9038160356304
vertex 2.23840542913229 -30.0 13.2307786620418
endloop
endfacet
facet normal 0.0 -1.0 0.0
outer loop
vertex -0.614890698421168 -30.0 13.2064702258647
vertex 2.23840542913229 -30.0 13.2307786620418
vertex -0.352685228232904 -30.0 14.5306790836451
endloop
endfacet
facet normal 0.0 -1.0 0.0
outer loop
vertex -0.352685228232904 -30.0 14.5306790836451
vertex 2.23840542913229 -30.0 13.2307786620418
vertex 1.97003370642887 -30.0 14.5534850702706
endloop
endfacet
facet normal 0.0 -1.0 0.0
outer loop
vertex -0.352685228232904 -30.0 14.5306790836451
vertex 1.97003370642887 -30.0 14.5534850702706
vertex -0.0824296511702061 -30.0 15.8520075396496
endloop
endfacet
facet normal 0.0 -1.0 0.0
outer loop
vertex -0.0824296511702061 -30.0 15.8520075396496
vertex 1.97003370642887 -30.0 14.5534850702706
vertex 1.68961060455447 -30.0 15.8717394054106
endloop
endfacet
facet normal 0.0 -1.0 0.0
outer loop
vertex -0.0824296511702061 -30.0 15.8520075396496
vertex 1.68961060455447 -30.0 15.8717394054106
vertex 0.195858238484074 -30.0 17.1703685944071
endloop
endfacet
facet normal 0.0 -1.0 0.0
outer loop
vertex 0.195858238484074 -30.0 17.1703685944071
vertex 1.68961060455447 -30.0 15.8717394054106
vertex 1.39717764613271 -30.0 17.1853464717798
endloop
endfacet
facet normal 0.0 -1.0 0.0
outer loop
vertex 0.195858238484074 -30.0 17.1703685944071
vertex 1.39717764613271 -30.0 17.1853464717798
vertex 0.482160117580098 -30.0 18.4856754438271
endloop
endfacet
facet normal 0.0 -1.0 0.0
outer loop
vertex 0.482160117580098 -30.0 18.4856754438271
vertex 1.39717764613271 -30.0 17.1853464717798
vertex 1.09277813210273 -30.0 18.4941117618235
endloop
endfacet
facet normal 0.0 -1.0 0.0
outer loop
vertex 0.482160117580098 -30.0 18.4856754438271
vertex 1.09277813210273 -30.0 18.4941117618235
vertex 0.776457135307565 -30.0 19.7978414849154
endloop
endfacet
facet normal 0.0 -1.0 0.0
outer loop
vertex -1.82161907604575 -30.0 1.86370330515627
vertex 0.388228567653784 -30.0 2.41481456572267
vertex -2.12132034355964 -30.0 2.82842712474619
endloop
endfacet
facet normal 0.0 -1.0 0.0
outer loop
vertex 0.388228567653784 -30.0 2.41481456572267
vertex -1.82161907604575 -30.0 1.86370330515627
vertex 0.776457135307565 -30.0 2.36370330515627
endloop
endfacet
facet normal 0.0 -1.0 0.0
outer loop
vertex -2.12132034355964 -30.0 2.82842712474619
vertex 0.388228567653784 -30.0 2.41481456572267
vertex 0.0264571353075654 -30.0 2.56466519947961
endloop
endfacet
facet normal 0.0 -1.0 0.0
outer loop
vertex -2.12132034355964 -30.0 2.82842712474619
vertex 0.0264571353075654 -30.0 2.56466519947961
vertex -0.284203036472256 -30.0 2.80304313337645
endloop
endfacet
facet normal 0.0 -1.0 0.0
outer loop
vertex -2.12132034355964 -30.0 2.82842712474619
vertex -0.284203036472256 -30.0 2.80304313337645
vertex -0.522580970369092 -30.0 3.11370330515627
endloop
endfacet
facet normal 0.0 -1.0 0.0
outer loop
vertex -2.12132034355964 -30.0 2.82842712474619
vertex -0.522580970369092 -30.0 3.11370330515627
vertex -2.22354286469244 -30.0 3.86370330515627
endloop
endfacet
facet normal 0.0 -1.0 0.0
outer loop
vertex -2.22354286469244 -30.0 3.86370330515627
vertex -0.522580970369092 -30.0 3.11370330515627
vertex -0.672431604126037 -30.0 3.47547473750249
endloop
endfacet
facet normal 0.0 -1.0 0.0
outer loop
vertex -2.22354286469244 -30.0 3.86370330515627
vertex -0.672431604126037 -30.0 3.47547473750249
vertex -0.723542864692435 -30.0 3.86370330515627
endloop
endfacet
facet normal 0.0 -1.0 0.0
outer loop
vertex -2.22354286469244 -30.0 3.86370330515627
vertex -0.723542864692435 -30.0 3.86370330515627
vertex -0.672431604126037 -30.0 4.25193187281005
endloop
endfacet
facet normal 0.0 -1.0 0.0
outer loop
vertex -2.22354286469244 -30.0 3.86370330515627
vertex -0.672431604126037 -30.0 4.25193187281005
vertex -2.01814172049211 -30.0 5.2056237841776
endloop
endfacet
facet normal 0.0 -1.0 0.0
outer loop
vertex -2.01814172049211 -30.0 5.2056237841776
vertex -0.672431604126037 -30.0 4.25193187281005
vertex -0.522580970369093 -30.0 4.61370330515627
endloop
endfacet
facet normal 0.0 -1.0 0.0
outer loop
vertex -2.01814172049211 -30.0 5.2056237841776
vertex -0.522580970369093 -30.0 4.61370330515627
vertex -0.284203036472256 -30.0 4.92436347693609
endloop
endfacet
facet normal 0.0 -1.0 0.0
outer loop
vertex -2.01814172049211 -30.0 5.2056237841776
vertex -0.284203036472256 -30.0 4.92436347693609
vertex 0.0264571353075654 -30.0 5.16274141083293
endloop
endfacet
facet normal 0.0 -1.0 0.0
outer loop
vertex -2.01814172049211 -30.0 5.2056237841776
vertex 0.0264571353075654 -30.0 5.16274141083293
vertex 0.388228567653783 -30.0 5.31259204458987
endloop
endfacet
facet normal 0.0 -1.0 0.0
outer loop
vertex -2.01814172049211 -30.0 5.2056237841776
vertex 0.388228567653783 -30.0 5.31259204458987
vertex -1.80458081172132 -30.0 6.54527784568761
endloop
endfacet
facet normal 0.0 -1.0 0.0
outer loop
vertex -1.80458081172132 -30.0 6.54527784568761
vertex 0.388228567653783 -30.0 5.31259204458987
vertex 0.776457135307565 -30.0 5.36370330515627
endloop
endfacet
facet normal 0.98678616676885 -0.0 0.162027963863153
outer loop
vertex 3.19061065370674 30.0 7.89935867507141
vertex 2.97082389797719 -30.0 9.23790866991119
vertex 3.19061065370674 -30.0 7.89935867507141
endloop
endfacet
facet normal 0.98678616676885 -0.0 0.162027963863153
outer loop
vertex 2.97082389797719 -30.0 9.23790866991119
vertex 3.19061065370674 30.0 7.89935867507141
vertex 2.97082389797719 30.0 9.23790866991119
endloop
endfacet
facet normal 0.98825069625184 -0.0 0.152841621810793
outer loop
vertex 3.39816529780479 30.0 6.55734189253479
vertex 3.19061065370674 -30.0 7.89935867507141
vertex 3.39816529780479 -30.0 6.55734189253479
endloop
endfacet
facet normal 0.98825069625184 -0.0 0.152841621810793
outer loop
vertex 3.19061065370674 -30.0 7.89935867507141
vertex 3.39816529780479 30.0 6.55734189253479
vertex 3.19061065370674 30.0 7.89935867507141
endloop
endfacet
facet normal 0.989626846317985 -0.0 0.143661773087761
outer loop
vertex 3.5934570973777 30.0 5.21205703652063
vertex 3.39816529780479 -30.0 6.55734189253479
vertex 3.5934570973777 -30.0 5.21205703652063
endloop
endfacet
facet normal 0.989626846317985 -0.0 0.143661773087761
outer loop
vertex 3.39816529780479 -30.0 6.55734189253479
vertex 3.5934570973777 30.0 5.21205703652063
vertex 3.39816529780479 30.0 6.55734189253479
endloop
endfacet
facet normal 0.990915209817886 -0.0 0.134488092229664
outer loop
vertex 3.77645713530755 30.0 3.86370330515627
vertex 3.5934570973777 -30.0 5.21205703652063
vertex 3.77645713530755 -30.0 3.86370330515627
endloop
endfacet
facet normal 0.990915209817886 -0.0 0.134488092229664
outer loop
vertex 3.5934570973777 -30.0 5.21205703652063
vertex 3.77645713530755 30.0 3.86370330515627
vertex 3.5934570973777 30.0 5.21205703652063
endloop
endfacet
facet normal 0.995160625460968 -0.0 -0.0982615363819232
outer loop
vertex 3.67423461417476 30.0 2.82842712474619
vertex 3.77645713530755 -30.0 3.86370330515627
vertex 3.67423461417476 -30.0 2.82842712474619
endloop
endfacet
facet normal 0.995160625460968 -0.0 -0.0982615363819232
outer loop
vertex 3.77645713530755 -30.0 3.86370330515627
vertex 3.67423461417476 30.0 2.82842712474619
vertex 3.77645713530755 30.0 3.86370330515627
endloop
endfacet
facet normal 0.954978848527685 -0.0 -0.296673893129708
outer loop
vertex 3.37453334666087 30.0 1.86370330515627
vertex 3.67423461417476 -30.0 2.82842712474619
vertex 3.37453334666087 -30.0 1.86370330515627
endloop
endfacet
facet normal 0.954978848527685 -0.0 -0.296673893129708
outer loop
vertex 3.67423461417476 -30.0 2.82842712474619
vertex 3.37453334666087 30.0 1.86370330515627
vertex 3.67423461417476 30.0 2.82842712474619
endloop
endfacet
facet normal 0.86672075840398 -0.0 -0.49879367172372
outer loop
vertex 2.89777747886721 30.0 1.03527618041008
vertex 3.37453334666087 -30.0 1.86370330515627
vertex 2.89777747886721 -30.0 1.03527618041008
endloop
endfacet
facet normal 0.86672075840398 -0.0 -0.49879367172372
outer loop
vertex 3.37453334666087 -30.0 1.86370330515627
vertex 2.89777747886721 30.0 1.03527618041008
vertex 3.37453334666087 30.0 1.86370330515627
endloop
endfacet
facet normal 0.715134901258711 -0.0 -0.698986461243488
outer loop
vertex 2.27645713530756 30.0 0.399601690018518
vertex 2.89777747886721 -30.0 1.03527618041008
vertex 2.27645713530756 -30.0 0.399601690018518
endloop
endfacet
facet normal 0.715134901258711 -0.0 -0.698986461243488
outer loop
vertex 2.89777747886721 -30.0 1.03527618041008
vertex 2.27645713530756 30.0 0.399601690018518
vertex 2.89777747886721 30.0 1.03527618041008
endloop
endfacet
facet normal 0.483453519595339 0.0 -0.875370032838045
outer loop
vertex 2.27645713530756 30.0 0.399601690018518
vertex 1.55291427061513 -30.0 -7.04991620636974e-016
vertex 1.55291427061513 30.0 -7.04991620636974e-016
endloop
endfacet
facet normal 0.483453519595339 0.0 -0.875370032838045
outer loop
vertex 1.55291427061513 -30.0 -7.04991620636974e-016
vertex 2.27645713530756 30.0 0.399601690018518
vertex 2.27645713530756 -30.0 0.399601690018518
endloop
endfacet
facet normal 0.172893183204964 0.0 -0.984940580543443
outer loop
vertex 1.55291427061513 30.0 -7.04991620636974e-016
vertex 0.776457135307565 -30.0 -0.136296694843727
vertex 0.776457135307565 30.0 -0.136296694843727
endloop
endfacet
facet normal 0.172893183204964 0.0 -0.984940580543443
outer loop
vertex 0.776457135307565 -30.0 -0.136296694843727
vertex 1.55291427061513 30.0 -7.04991620636974e-016
vertex 1.55291427061513 -30.0 -7.04991620636974e-016
endloop
endfacet
facet normal -0.172893183204965 0.0 -0.984940580543443
outer loop
vertex 0.776457135307565 30.0 -0.136296694843727
vertex 0.0 -30.0 0.0
vertex 0.0 30.0 0.0
endloop
endfacet
facet normal -0.172893183204965 0.0 -0.984940580543443
outer loop
vertex 0.0 -30.0 0.0
vertex 0.776457135307565 30.0 -0.136296694843727
vertex 0.776457135307565 -30.0 -0.136296694843727
endloop
endfacet
facet normal -0.483453519595334 0.0 -0.875370032838047
outer loop
vertex 0.0 30.0 0.0
vertex -0.723542864692437 -30.0 0.399601690018518
vertex -0.723542864692437 30.0 0.399601690018518
endloop
endfacet
facet normal -0.483453519595334 0.0 -0.875370032838047
outer loop
vertex -0.723542864692437 -30.0 0.399601690018518
vertex 0.0 30.0 0.0
vertex 0.0 -30.0 0.0
endloop
endfacet
facet normal -0.715134901258714 0.0 -0.698986461243484
outer loop
vertex -1.34486320825208 30.0 1.03527618041008
vertex -0.723542864692437 -30.0 0.399601690018518
vertex -1.34486320825208 -30.0 1.03527618041008
endloop
endfacet
facet normal -0.715134901258714 0.0 -0.698986461243484
outer loop
vertex -0.723542864692437 -30.0 0.399601690018518
vertex -1.34486320825208 30.0 1.03527618041008
vertex -0.723542864692437 30.0 0.399601690018518
endloop
endfacet
facet normal -0.86672075840398 0.0 -0.498793671723719
outer loop
vertex -1.82161907604575 30.0 1.86370330515627
vertex -1.34486320825208 -30.0 1.03527618041008
vertex -1.82161907604575 -30.0 1.86370330515627
endloop
endfacet
facet normal -0.86672075840398 0.0 -0.498793671723719
outer loop
vertex -1.34486320825208 -30.0 1.03527618041008
vertex -1.82161907604575 30.0 1.86370330515627
vertex -1.34486320825208 30.0 1.03527618041008
endloop
endfacet
facet normal -0.954978848527686 0.0 -0.296673893129705
outer loop
vertex -2.12132034355964 30.0 2.82842712474619
vertex -1.82161907604575 -30.0 1.86370330515627
vertex -2.12132034355964 -30.0 2.82842712474619
endloop
endfacet
facet normal -0.954978848527686 0.0 -0.296673893129705
outer loop
vertex -1.82161907604575 -30.0 1.86370330515627
vertex -2.12132034355964 30.0 2.82842712474619
vertex -1.82161907604575 30.0 1.86370330515627
endloop
endfacet
facet normal -0.608761429008721 0.0 -0.793353340291235
outer loop
vertex 0.0264571353075654 35.0 2.56466519947961
vertex -0.284203036472256 30.0 2.80304313337645
vertex -0.284203036472256 35.0 2.80304313337645
endloop
endfacet
facet normal -0.608761429008721 0.0 -0.793353340291235
outer loop
vertex -0.284203036472256 30.0 2.80304313337645
vertex 0.0264571353075654 35.0 2.56466519947961
vertex 0.0264571353075654 30.0 2.56466519947961
endloop
endfacet
facet normal -0.38268343236509 0.0 -0.923879532511287
outer loop
vertex 0.388228567653784 35.0 2.41481456572267
vertex 0.0264571353075654 30.0 2.56466519947961
vertex 0.0264571353075654 35.0 2.56466519947961
endloop
endfacet
facet normal -0.38268343236509 0.0 -0.923879532511287
outer loop
vertex 0.0264571353075654 30.0 2.56466519947961
vertex 0.388228567653784 35.0 2.41481456572267
vertex 0.388228567653784 30.0 2.41481456572267
endloop
endfacet
facet normal -0.130526192220052 0.0 -0.99144486137381
outer loop
vertex 0.776457135307565 35.0 2.36370330515627
vertex 0.388228567653784 30.0 2.41481456572267
vertex 0.388228567653784 35.0 2.41481456572267
endloop
endfacet
facet normal -0.130526192220052 0.0 -0.99144486137381
outer loop
vertex 0.388228567653784 30.0 2.41481456572267
vertex 0.776457135307565 35.0 2.36370330515627
vertex 0.776457135307565 30.0 2.36370330515627
endloop
endfacet
facet normal 0.130526192220051 -0.0 0.99144486137381
outer loop
vertex 1.16468570296135 30.0 5.31259204458987
vertex 0.776457135307565 35.0 5.36370330515627
vertex 0.776457135307565 30.0 5.36370330515627
endloop
endfacet
facet normal 0.130526192220051 -0.0 0.99144486137381
outer loop
vertex 0.776457135307565 35.0 5.36370330515627
vertex 1.16468570296135 30.0 5.31259204458987
vertex 1.16468570296135 35.0 5.31259204458987
endloop
endfacet
facet normal 0.38268343236509 0.0 -0.923879532511287
outer loop
vertex 1.52645713530757 -30.0 2.56466519947961
vertex 1.16468570296135 -35.0 2.41481456572267
vertex 1.16468570296135 -30.0 2.41481456572267
endloop
endfacet
facet normal 0.38268343236509 0.0 -0.923879532511287
outer loop
vertex 1.16468570296135 -35.0 2.41481456572267
vertex 1.52645713530757 -30.0 2.56466519947961
vertex 1.52645713530757 -35.0 2.56466519947961
endloop
endfacet
facet normal -0.130526192220052 -0.0 0.99144486137381
outer loop
vertex 0.776457135307565 30.0 5.36370330515627
vertex 0.388228567653786 35.0 5.31259204458987
vertex 0.388228567653786 30.0 5.31259204458987
endloop
endfacet
facet normal -0.130526192220052 -0.0 0.99144486137381
outer loop
vertex 0.388228567653786 35.0 5.31259204458987
vertex 0.776457135307565 30.0 5.36370330515627
vertex 0.776457135307565 35.0 5.36370330515627
endloop
endfacet
facet normal 0.130526192220052 0.0 -0.99144486137381
outer loop
vertex 1.16468570296135 -30.0 2.41481456572267
vertex 0.776457135307565 -35.0 2.36370330515627
vertex 0.776457135307565 -30.0 2.36370330515627
endloop
endfacet
facet normal 0.130526192220052 0.0 -0.99144486137381
outer loop
vertex 0.776457135307565 -35.0 2.36370330515627
vertex 1.16468570296135 -30.0 2.41481456572267
vertex 1.16468570296135 -35.0 2.41481456572267
endloop
endfacet
facet normal -0.382683432365088 -0.0 0.923879532511288
outer loop
vertex 0.388228567653786 30.0 5.31259204458987
vertex 0.0264571353075669 35.0 5.16274141083293
vertex 0.0264571353075669 30.0 5.16274141083293
endloop
endfacet
facet normal -0.382683432365088 -0.0 0.923879532511288
outer loop
vertex 0.0264571353075669 35.0 5.16274141083293
vertex 0.388228567653786 30.0 5.31259204458987
vertex 0.388228567653786 35.0 5.31259204458987
endloop
endfacet
facet normal -0.130526192220052 0.0 -0.99144486137381
outer loop
vertex 0.776457135307565 -30.0 2.36370330515627
vertex 0.388228567653784 -35.0 2.41481456572267
vertex 0.388228567653784 -30.0 2.41481456572267
endloop
endfacet
facet normal -0.130526192220052 0.0 -0.99144486137381
outer loop
vertex 0.388228567653784 -35.0 2.41481456572267
vertex 0.776457135307565 -30.0 2.36370330515627
vertex 0.776457135307565 -35.0 2.36370330515627
endloop
endfacet
facet normal 0.130526192220052 -0.0 0.99144486137381
outer loop
vertex 1.16468570296135 -35.0 5.31259204458987
vertex 0.776457135307565 -30.0 5.36370330515627
vertex 0.776457135307565 -35.0 5.36370330515627
endloop
endfacet
facet normal 0.130526192220052 -0.0 0.99144486137381
outer loop
vertex 0.776457135307565 -30.0 5.36370330515627
vertex 1.16468570296135 -35.0 5.31259204458987
vertex 1.16468570296135 -30.0 5.31259204458987
endloop
endfacet
facet normal 0.382683432365088 -0.0 0.923879532511288
outer loop
vertex 1.52645713530756 -35.0 5.16274141083293
vertex 1.16468570296135 -30.0 5.31259204458987
vertex 1.16468570296135 -35.0 5.31259204458987
endloop
endfacet
facet normal 0.382683432365088 -0.0 0.923879532511288
outer loop
vertex 1.16468570296135 -30.0 5.31259204458987
vertex 1.52645713530756 -35.0 5.16274141083293
vertex 1.52645713530756 -30.0 5.16274141083293
endloop
endfacet
facet normal 0.60876142900872 -0.0 0.793353340291236
outer loop
vertex 1.83711730708739 -35.0 4.92436347693609
vertex 1.52645713530756 -30.0 5.16274141083293
vertex 1.52645713530756 -35.0 5.16274141083293
endloop
endfacet
facet normal 0.60876142900872 -0.0 0.793353340291236
outer loop
vertex 1.52645713530756 -30.0 5.16274141083293
vertex 1.83711730708739 -35.0 4.92436347693609
vertex 1.83711730708739 -30.0 4.92436347693609
endloop
endfacet
facet normal 0.793353340291234 -0.0 0.608761429008722
outer loop
vertex 2.07549524098422 -30.0 4.61370330515627
vertex 1.83711730708739 -35.0 4.92436347693609
vertex 2.07549524098422 -35.0 4.61370330515627
endloop
endfacet
facet normal 0.793353340291234 -0.0 0.608761429008722
outer loop
vertex 1.83711730708739 -35.0 4.92436347693609
vertex 2.07549524098422 -30.0 4.61370330515627
vertex 1.83711730708739 -30.0 4.92436347693609
endloop
endfacet
facet normal 0.923879532511287 -0.0 0.382683432365088
outer loop
vertex 2.22534587474117 -30.0 4.25193187281005
vertex 2.07549524098422 -35.0 4.61370330515627
vertex 2.22534587474117 -35.0 4.25193187281005
endloop
endfacet
facet normal 0.923879532511287 -0.0 0.382683432365088
outer loop
vertex 2.07549524098422 -35.0 4.61370330515627
vertex 2.22534587474117 -30.0 4.25193187281005
vertex 2.07549524098422 -30.0 4.61370330515627
endloop
endfacet
facet normal 0.99144486137381 -0.0 0.130526192220051
outer loop
vertex 2.27645713530757 -30.0 3.86370330515627
vertex 2.22534587474117 -35.0 4.25193187281005
vertex 2.27645713530757 -35.0 3.86370330515627
endloop
endfacet
facet normal 0.99144486137381 -0.0 0.130526192220051
outer loop
vertex 2.22534587474117 -35.0 4.25193187281005
vertex 2.27645713530757 -30.0 3.86370330515627
vertex 2.22534587474117 -30.0 4.25193187281005
endloop
endfacet
facet normal 0.99144486137381 -0.0 -0.130526192220052
outer loop
vertex 2.22534587474117 -30.0 3.47547473750249
vertex 2.27645713530757 -35.0 3.86370330515627
vertex 2.22534587474117 -35.0 3.47547473750249
endloop
endfacet
facet normal 0.99144486137381 -0.0 -0.130526192220052
outer loop
vertex 2.27645713530757 -35.0 3.86370330515627
vertex 2.22534587474117 -30.0 3.47547473750249
vertex 2.27645713530757 -30.0 3.86370330515627
endloop
endfacet
facet normal 0.923879532511288 -0.0 -0.382683432365088
outer loop
vertex 2.07549524098422 -30.0 3.11370330515627
vertex 2.22534587474117 -35.0 3.47547473750249
vertex 2.07549524098422 -35.0 3.11370330515627
endloop
endfacet
facet normal 0.923879532511288 -0.0 -0.382683432365088
outer loop
vertex 2.22534587474117 -35.0 3.47547473750249
vertex 2.07549524098422 -30.0 3.11370330515627
vertex 2.22534587474117 -30.0 3.47547473750249
endloop
endfacet
facet normal 0.793353340291234 -0.0 -0.608761429008722
outer loop
vertex 1.83711730708739 -30.0 2.80304313337645
vertex 2.07549524098422 -35.0 3.11370330515627
vertex 1.83711730708739 -35.0 2.80304313337645
endloop
endfacet
facet normal 0.793353340291234 -0.0 -0.608761429008722
outer loop
vertex 2.07549524098422 -35.0 3.11370330515627
vertex 1.83711730708739 -30.0 2.80304313337645
vertex 2.07549524098422 -30.0 3.11370330515627
endloop
endfacet
facet normal 0.608761429008721 0.0 -0.793353340291235
outer loop
vertex 1.83711730708739 -30.0 2.80304313337645
vertex 1.52645713530757 -35.0 2.56466519947961
vertex 1.52645713530757 -30.0 2.56466519947961
endloop
endfacet
facet normal 0.608761429008721 0.0 -0.793353340291235
outer loop
vertex 1.52645713530757 -35.0 2.56466519947961
vertex 1.83711730708739 -30.0 2.80304313337645
vertex 1.83711730708739 -35.0 2.80304313337645
endloop
endfacet
facet normal 0.0 -1.0 0.0
outer loop
vertex 1.16468570296135 -35.0 2.41481456572267
vertex 0.388228567653784 -35.0 2.41481456572267
vertex 0.776457135307565 -35.0 2.36370330515627
endloop
endfacet
facet normal 0.0 -1.0 0.0
outer loop
vertex 0.388228567653784 -35.0 2.41481456572267
vertex 1.16468570296135 -35.0 2.41481456572267
vertex 1.52645713530757 -35.0 2.56466519947961
endloop
endfacet
facet normal 0.0 -1.0 0.0
outer loop
vertex 0.388228567653784 -35.0 2.41481456572267
vertex 1.52645713530757 -35.0 2.56466519947961
vertex 0.0264571353075654 -35.0 2.56466519947961
endloop
endfacet
facet normal 0.0 -1.0 0.0
outer loop
vertex 0.0264571353075654 -35.0 2.56466519947961
vertex 1.52645713530757 -35.0 2.56466519947961
vertex 1.83711730708739 -35.0 2.80304313337645
endloop
endfacet
facet normal 0.0 -1.0 0.0
outer loop
vertex 0.0264571353075654 -35.0 2.56466519947961
vertex 1.83711730708739 -35.0 2.80304313337645
vertex -0.284203036472256 -35.0 2.80304313337645
endloop
endfacet
facet normal 0.0 -1.0 0.0
outer loop
vertex -0.284203036472256 -35.0 2.80304313337645
vertex 1.83711730708739 -35.0 2.80304313337645
vertex -0.522580970369092 -35.0 3.11370330515627
endloop
endfacet
facet normal 0.0 -1.0 0.0
outer loop
vertex -0.522580970369092 -35.0 3.11370330515627
vertex 1.83711730708739 -35.0 2.80304313337645
vertex 2.07549524098422 -35.0 3.11370330515627
endloop
endfacet
facet normal 0.0 -1.0 0.0
outer loop
vertex -0.522580970369092 -35.0 3.11370330515627
vertex 2.07549524098422 -35.0 3.11370330515627
vertex -0.672431604126037 -35.0 3.47547473750249
endloop
endfacet
facet normal 0.0 -1.0 0.0
outer loop
vertex -0.672431604126037 -35.0 3.47547473750249
vertex 2.07549524098422 -35.0 3.11370330515627
vertex 2.22534587474117 -35.0 3.47547473750249
endloop
endfacet
facet normal 0.0 -1.0 0.0
outer loop
vertex -0.672431604126037 -35.0 3.47547473750249
vertex 2.22534587474117 -35.0 3.47547473750249
vertex 2.27645713530757 -35.0 3.86370330515627
endloop
endfacet
facet normal 0.0 -1.0 0.0
outer loop
vertex -0.672431604126037 -35.0 3.47547473750249
vertex 2.27645713530757 -35.0 3.86370330515627
vertex -0.723542864692435 -35.0 3.86370330515627
endloop
endfacet
facet normal 0.0 -1.0 0.0
outer loop
vertex -0.723542864692435 -35.0 3.86370330515627
vertex 2.27645713530757 -35.0 3.86370330515627
vertex 2.22534587474117 -35.0 4.25193187281005
endloop
endfacet
facet normal 0.0 -1.0 0.0
outer loop
vertex -0.723542864692435 -35.0 3.86370330515627
vertex 2.22534587474117 -35.0 4.25193187281005
vertex -0.672431604126037 -35.0 4.25193187281005
endloop
endfacet
facet normal 0.0 -1.0 0.0
outer loop
vertex -0.672431604126037 -35.0 4.25193187281005
vertex 2.22534587474117 -35.0 4.25193187281005
vertex -0.522580970369093 -35.0 4.61370330515627
endloop
endfacet
facet normal 0.0 -1.0 0.0
outer loop
vertex -0.522580970369093 -35.0 4.61370330515627
vertex 2.22534587474117 -35.0 4.25193187281005
vertex 2.07549524098422 -35.0 4.61370330515627
endloop
endfacet
facet normal 0.0 -1.0 0.0
outer loop
vertex -0.522580970369093 -35.0 4.61370330515627
vertex 2.07549524098422 -35.0 4.61370330515627
vertex -0.284203036472256 -35.0 4.92436347693609
endloop
endfacet
facet normal 0.0 -1.0 0.0
outer loop
vertex -0.284203036472256 -35.0 4.92436347693609
vertex 2.07549524098422 -35.0 4.61370330515627
vertex 1.83711730708739 -35.0 4.92436347693609
endloop
endfacet
facet normal 0.0 -1.0 0.0
outer loop
vertex -0.284203036472256 -35.0 4.92436347693609
vertex 1.83711730708739 -35.0 4.92436347693609
vertex 0.0264571353075654 -35.0 5.16274141083293
endloop
endfacet
facet normal 0.0 -1.0 0.0
outer loop
vertex 0.0264571353075654 -35.0 5.16274141083293
vertex 1.83711730708739 -35.0 4.92436347693609
vertex 1.52645713530756 -35.0 5.16274141083293
endloop
endfacet
facet normal 0.0 -1.0 0.0
outer loop
vertex 0.0264571353075654 -35.0 5.16274141083293
vertex 1.52645713530756 -35.0 5.16274141083293
vertex 0.388228567653783 -35.0 5.31259204458987
endloop
endfacet
facet normal 0.0 -1.0 0.0
outer loop
vertex 0.388228567653783 -35.0 5.31259204458987
vertex 1.52645713530756 -35.0 5.16274141083293
vertex 1.16468570296135 -35.0 5.31259204458987
endloop
endfacet
facet normal 0.0 -1.0 0.0
outer loop
vertex 0.388228567653783 -35.0 5.31259204458987
vertex 1.16468570296135 -35.0 5.31259204458987
vertex 0.776457135307565 -35.0 5.36370330515627
endloop
endfacet
facet normal -0.38268343236509 0.0 -0.923879532511287
outer loop
vertex 0.388228567653784 -30.0 2.41481456572267
vertex 0.0264571353075654 -35.0 2.56466519947961
vertex 0.0264571353075654 -30.0 2.56466519947961
endloop
endfacet
facet normal -0.38268343236509 0.0 -0.923879532511287
outer loop
vertex 0.0264571353075654 -35.0 2.56466519947961
vertex 0.388228567653784 -30.0 2.41481456572267
vertex 0.388228567653784 -35.0 2.41481456572267
endloop
endfacet
facet normal -0.608761429008721 0.0 -0.793353340291235
outer loop
vertex 0.0264571353075654 -30.0 2.56466519947961
vertex -0.284203036472256 -35.0 2.80304313337645
vertex -0.284203036472256 -30.0 2.80304313337645
endloop
endfacet
facet normal -0.608761429008721 0.0 -0.793353340291235
outer loop
vertex -0.284203036472256 -35.0 2.80304313337645
vertex 0.0264571353075654 -30.0 2.56466519947961
vertex 0.0264571353075654 -35.0 2.56466519947961
endloop
endfacet
facet normal -0.793353340291235 0.0 -0.608761429008721
outer loop
vertex -0.522580970369092 -30.0 3.11370330515627
vertex -0.284203036472256 -35.0 2.80304313337645
vertex -0.522580970369092 -35.0 3.11370330515627
endloop
endfacet
facet normal -0.793353340291235 0.0 -0.608761429008721
outer loop
vertex -0.284203036472256 -35.0 2.80304313337645
vertex -0.522580970369092 -30.0 3.11370330515627
vertex -0.284203036472256 -30.0 2.80304313337645
endloop
endfacet
facet normal -0.923879532511286 0.0 -0.382683432365091
outer loop
vertex -0.672431604126037 -30.0 3.47547473750249
vertex -0.522580970369092 -35.0 3.11370330515627
vertex -0.672431604126037 -35.0 3.47547473750249
endloop
endfacet
facet normal -0.923879532511286 0.0 -0.382683432365091
outer loop
vertex -0.522580970369092 -35.0 3.11370330515627
vertex -0.672431604126037 -30.0 3.47547473750249
vertex -0.522580970369092 -30.0 3.11370330515627
endloop
endfacet
facet normal -0.99144486137381 0.0 -0.130526192220052
outer loop
vertex -0.723542864692435 -30.0 3.86370330515627
vertex -0.672431604126037 -35.0 3.47547473750249
vertex -0.723542864692435 -35.0 3.86370330515627
endloop
endfacet
facet normal -0.99144486137381 0.0 -0.130526192220052
outer loop
vertex -0.672431604126037 -35.0 3.47547473750249
vertex -0.723542864692435 -30.0 3.86370330515627
vertex -0.672431604126037 -30.0 3.47547473750249
endloop
endfacet
facet normal -0.99144486137381 0.0 0.130526192220052
outer loop
vertex -0.672431604126037 -30.0 4.25193187281005
vertex -0.723542864692435 -35.0 3.86370330515627
vertex -0.672431604126037 -35.0 4.25193187281005
endloop
endfacet
facet normal -0.99144486137381 0.0 0.130526192220052
outer loop
vertex -0.723542864692435 -35.0 3.86370330515627
vertex -0.672431604126037 -30.0 4.25193187281005
vertex -0.723542864692435 -30.0 3.86370330515627
endloop
endfacet
facet normal -0.923879532511287 0.0 0.382683432365088
outer loop
vertex -0.522580970369093 -30.0 4.61370330515627
vertex -0.672431604126037 -35.0 4.25193187281005
vertex -0.522580970369093 -35.0 4.61370330515627
endloop
endfacet
facet normal -0.923879532511287 0.0 0.382683432365088
outer loop
vertex -0.672431604126037 -35.0 4.25193187281005
vertex -0.522580970369093 -30.0 4.61370330515627
vertex -0.672431604126037 -30.0 4.25193187281005
endloop
endfacet
facet normal -0.793353340291234 0.0 0.608761429008722
outer loop
vertex -0.284203036472256 -30.0 4.92436347693609
vertex -0.522580970369093 -35.0 4.61370330515627
vertex -0.284203036472256 -35.0 4.92436347693609
endloop
endfacet
facet normal -0.793353340291234 0.0 0.608761429008722
outer loop
vertex -0.522580970369093 -35.0 4.61370330515627
vertex -0.284203036472256 -30.0 4.92436347693609
vertex -0.522580970369093 -30.0 4.61370330515627
endloop
endfacet
facet normal -0.608761429008722 -0.0 0.793353340291234
outer loop
vertex 0.0264571353075654 -35.0 5.16274141083293
vertex -0.284203036472256 -30.0 4.92436347693609
vertex -0.284203036472256 -35.0 4.92436347693609
endloop
endfacet
facet normal -0.608761429008722 -0.0 0.793353340291234
outer loop
vertex -0.284203036472256 -30.0 4.92436347693609
vertex 0.0264571353075654 -35.0 5.16274141083293
vertex 0.0264571353075654 -30.0 5.16274141083293
endloop
endfacet
facet normal -0.382683432365091 -0.0 0.923879532511286
outer loop
vertex 0.388228567653783 -35.0 5.31259204458987
vertex 0.0264571353075654 -30.0 5.16274141083293
vertex 0.0264571353075654 -35.0 5.16274141083293
endloop
endfacet
facet normal -0.382683432365091 -0.0 0.923879532511286
outer loop
vertex 0.0264571353075654 -30.0 5.16274141083293
vertex 0.388228567653783 -35.0 5.31259204458987
vertex 0.388228567653783 -30.0 5.31259204458987
endloop
endfacet
facet normal -0.130526192220051 -0.0 0.99144486137381
outer loop
vertex 0.776457135307565 -35.0 5.36370330515627
vertex 0.388228567653783 -30.0 5.31259204458987
vertex 0.388228567653783 -35.0 5.31259204458987
endloop
endfacet
facet normal -0.130526192220051 -0.0 0.99144486137381
outer loop
vertex 0.388228567653783 -30.0 5.31259204458987
vertex 0.776457135307565 -35.0 5.36370330515627
vertex 0.776457135307565 -30.0 5.36370330515627
endloop
endfacet
facet normal -0.60876142900872 -0.0 0.793353340291236
outer loop
vertex 0.0264571353075669 30.0 5.16274141083293
vertex -0.284203036472256 35.0 4.92436347693609
vertex -0.284203036472256 30.0 4.92436347693609
endloop
endfacet
facet normal -0.60876142900872 -0.0 0.793353340291236
outer loop
vertex -0.284203036472256 35.0 4.92436347693609
vertex 0.0264571353075669 30.0 5.16274141083293
vertex 0.0264571353075669 35.0 5.16274141083293
endloop
endfacet
facet normal -0.793353340291236 0.0 0.60876142900872
outer loop
vertex -0.284203036472256 35.0 4.92436347693609
vertex -0.522580970369092 30.0 4.61370330515627
vertex -0.284203036472256 30.0 4.92436347693609
endloop
endfacet
facet normal -0.793353340291236 0.0 0.60876142900872
outer loop
vertex -0.522580970369092 30.0 4.61370330515627
vertex -0.284203036472256 35.0 4.92436347693609
vertex -0.522580970369092 35.0 4.61370330515627
endloop
endfacet
facet normal -0.923879532511286 0.0 0.382683432365091
outer loop
vertex -0.522580970369092 35.0 4.61370330515627
vertex -0.672431604126037 30.0 4.25193187281005
vertex -0.522580970369092 30.0 4.61370330515627
endloop
endfacet
facet normal -0.923879532511286 0.0 0.382683432365091
outer loop
vertex -0.672431604126037 30.0 4.25193187281005
vertex -0.522580970369092 35.0 4.61370330515627
vertex -0.672431604126037 35.0 4.25193187281005
endloop
endfacet
facet normal -0.99144486137381 0.0 0.130526192220051
outer loop
vertex -0.672431604126037 35.0 4.25193187281005
vertex -0.723542864692435 30.0 3.86370330515627
vertex -0.672431604126037 30.0 4.25193187281005
endloop
endfacet
facet normal -0.99144486137381 0.0 0.130526192220051
outer loop
vertex -0.723542864692435 30.0 3.86370330515627
vertex -0.672431604126037 35.0 4.25193187281005
vertex -0.723542864692435 35.0 3.86370330515627
endloop
endfacet
facet normal -0.99144486137381 0.0 -0.130526192220052
outer loop
vertex -0.723542864692435 35.0 3.86370330515627
vertex -0.672431604126037 30.0 3.47547473750249
vertex -0.723542864692435 30.0 3.86370330515627
endloop
endfacet
facet normal -0.99144486137381 0.0 -0.130526192220052
outer loop
vertex -0.672431604126037 30.0 3.47547473750249
vertex -0.723542864692435 35.0 3.86370330515627
vertex -0.672431604126037 35.0 3.47547473750249
endloop
endfacet
facet normal -0.923879532511286 0.0 -0.382683432365091
outer loop
vertex -0.672431604126037 35.0 3.47547473750249
vertex -0.522580970369092 30.0 3.11370330515627
vertex -0.672431604126037 30.0 3.47547473750249
endloop
endfacet
facet normal -0.923879532511286 0.0 -0.382683432365091
outer loop
vertex -0.522580970369092 30.0 3.11370330515627
vertex -0.672431604126037 35.0 3.47547473750249
vertex -0.522580970369092 35.0 3.11370330515627
endloop
endfacet
facet normal -0.793353340291236 0.0 -0.60876142900872
outer loop
vertex -0.522580970369092 35.0 3.11370330515627
vertex -0.284203036472256 30.0 2.80304313337645
vertex -0.522580970369092 30.0 3.11370330515627
endloop
endfacet
facet normal -0.793353340291236 0.0 -0.60876142900872
outer loop
vertex -0.284203036472256 30.0 2.80304313337645
vertex -0.522580970369092 35.0 3.11370330515627
vertex -0.284203036472256 35.0 2.80304313337645
endloop
endfacet
facet normal -0.0 1.0 -0.0
outer loop
vertex 0.388228567653784 35.0 2.41481456572267
vertex 1.16468570296135 35.0 2.41481456572267
vertex 0.776457135307565 35.0 2.36370330515627
endloop
endfacet
facet normal -0.0 1.0 -0.0
outer loop
vertex 1.16468570296135 35.0 2.41481456572267
vertex 0.388228567653784 35.0 2.41481456572267
vertex 0.0264571353075654 35.0 2.56466519947961
endloop
endfacet
facet normal -0.0 1.0 -0.0
outer loop
vertex 1.16468570296135 35.0 2.41481456572267
vertex 0.0264571353075654 35.0 2.56466519947961
vertex 1.52645713530757 35.0 2.56466519947961
endloop
endfacet
facet normal -0.0 1.0 -0.0
outer loop
vertex 1.52645713530757 35.0 2.56466519947961
vertex 0.0264571353075654 35.0 2.56466519947961
vertex -0.284203036472256 35.0 2.80304313337645
endloop
endfacet
facet normal -0.0 1.0 -0.0
outer loop
vertex 1.52645713530757 35.0 2.56466519947961
vertex -0.284203036472256 35.0 2.80304313337645
vertex 1.83711730708739 35.0 2.80304313337645
endloop
endfacet
facet normal -0.0 1.0 -0.0
outer loop
vertex 1.83711730708739 35.0 2.80304313337645
vertex -0.284203036472256 35.0 2.80304313337645
vertex 2.07549524098422 35.0 3.11370330515627
endloop
endfacet
facet normal -0.0 1.0 -0.0
outer loop
vertex 2.07549524098422 35.0 3.11370330515627
vertex -0.284203036472256 35.0 2.80304313337645
vertex -0.522580970369092 35.0 3.11370330515627
endloop
endfacet
facet normal -0.0 1.0 -0.0
outer loop
vertex 2.07549524098422 35.0 3.11370330515627
vertex -0.522580970369092 35.0 3.11370330515627
vertex 2.22534587474117 35.0 3.47547473750249
endloop
endfacet
facet normal -0.0 1.0 -0.0
outer loop
vertex 2.22534587474117 35.0 3.47547473750249
vertex -0.522580970369092 35.0 3.11370330515627
vertex -0.672431604126037 35.0 3.47547473750249
endloop
endfacet
facet normal -0.0 1.0 -0.0
outer loop
vertex 2.22534587474117 35.0 3.47547473750249
vertex -0.672431604126037 35.0 3.47547473750249
vertex -0.723542864692435 35.0 3.86370330515627
endloop
endfacet
facet normal -0.0 1.0 -0.0
outer loop
vertex 2.22534587474117 35.0 3.47547473750249
vertex -0.723542864692435 35.0 3.86370330515627
vertex 2.27645713530757 35.0 3.86370330515627
endloop
endfacet
facet normal -0.0 1.0 -0.0
outer loop
vertex 2.27645713530757 35.0 3.86370330515627
vertex -0.723542864692435 35.0 3.86370330515627
vertex -0.672431604126037 35.0 4.25193187281005
endloop
endfacet
facet normal -0.0 1.0 -0.0
outer loop
vertex 2.27645713530757 35.0 3.86370330515627
vertex -0.672431604126037 35.0 4.25193187281005
vertex 2.22534587474117 35.0 4.25193187281005
endloop
endfacet
facet normal -0.0 1.0 -0.0
outer loop
vertex 2.22534587474117 35.0 4.25193187281005
vertex -0.672431604126037 35.0 4.25193187281005
vertex 2.07549524098422 35.0 4.61370330515627
endloop
endfacet
facet normal -0.0 1.0 -0.0
outer loop
vertex 2.07549524098422 35.0 4.61370330515627
vertex -0.672431604126037 35.0 4.25193187281005
vertex -0.522580970369092 35.0 4.61370330515627
endloop
endfacet
facet normal -0.0 1.0 -0.0
outer loop
vertex 2.07549524098422 35.0 4.61370330515627
vertex -0.522580970369092 35.0 4.61370330515627
vertex 1.83711730708739 35.0 4.92436347693609
endloop
endfacet
facet normal -0.0 1.0 -0.0
outer loop
vertex 1.83711730708739 35.0 4.92436347693609
vertex -0.522580970369092 35.0 4.61370330515627
vertex -0.284203036472256 35.0 4.92436347693609
endloop
endfacet
facet normal -0.0 1.0 -0.0
outer loop
vertex 1.83711730708739 35.0 4.92436347693609
vertex -0.284203036472256 35.0 4.92436347693609
vertex 1.52645713530757 35.0 5.16274141083293
endloop
endfacet
facet normal -0.0 1.0 -0.0
outer loop
vertex 1.52645713530757 35.0 5.16274141083293
vertex -0.284203036472256 35.0 4.92436347693609
vertex 0.0264571353075669 35.0 5.16274141083293
endloop
endfacet
facet normal -0.0 1.0 -0.0
outer loop
vertex 1.52645713530757 35.0 5.16274141083293
vertex 0.0264571353075669 35.0 5.16274141083293
vertex 1.16468570296135 35.0 5.31259204458987
endloop
endfacet
facet normal -0.0 1.0 -0.0
outer loop
vertex 1.16468570296135 35.0 5.31259204458987
vertex 0.0264571353075669 35.0 5.16274141083293
vertex 0.388228567653786 35.0 5.31259204458987
endloop
endfacet
facet normal -0.0 1.0 -0.0
outer loop
vertex 1.16468570296135 35.0 5.31259204458987
vertex 0.388228567653786 35.0 5.31259204458987
vertex 0.776457135307565 35.0 5.36370330515627
endloop
endfacet
facet normal 0.130526192220052 0.0 -0.99144486137381
outer loop
vertex 1.16468570296135 35.0 2.41481456572267
vertex 0.776457135307565 30.0 2.36370330515627
vertex 0.776457135307565 35.0 2.36370330515627
endloop
endfacet
facet normal 0.130526192220052 0.0 -0.99144486137381
outer loop
vertex 0.776457135307565 30.0 2.36370330515627
vertex 1.16468570296135 35.0 2.41481456572267
vertex 1.16468570296135 30.0 2.41481456572267
endloop
endfacet
facet normal 0.38268343236509 0.0 -0.923879532511287
outer loop
vertex 1.52645713530757 35.0 2.56466519947961
vertex 1.16468570296135 30.0 2.41481456572267
vertex 1.16468570296135 35.0 2.41481456572267
endloop
endfacet
facet normal 0.38268343236509 0.0 -0.923879532511287
outer loop
vertex 1.16468570296135 30.0 2.41481456572267
vertex 1.52645713530757 35.0 2.56466519947961
vertex 1.52645713530757 30.0 2.56466519947961
endloop
endfacet
facet normal 0.608761429008721 0.0 -0.793353340291235
outer loop
vertex 1.83711730708739 35.0 2.80304313337645
vertex 1.52645713530757 30.0 2.56466519947961
vertex 1.52645713530757 35.0 2.56466519947961
endloop
endfacet
facet normal 0.608761429008721 0.0 -0.793353340291235
outer loop
vertex 1.52645713530757 30.0 2.56466519947961
vertex 1.83711730708739 35.0 2.80304313337645
vertex 1.83711730708739 30.0 2.80304313337645
endloop
endfacet
facet normal 0.793353340291233 -0.0 -0.608761429008723
outer loop
vertex 1.83711730708739 35.0 2.80304313337645
vertex 2.07549524098422 30.0 3.11370330515627
vertex 1.83711730708739 30.0 2.80304313337645
endloop
endfacet
facet normal 0.793353340291233 -0.0 -0.608761429008723
outer loop
vertex 2.07549524098422 30.0 3.11370330515627
vertex 1.83711730708739 35.0 2.80304313337645
vertex 2.07549524098422 35.0 3.11370330515627
endloop
endfacet
facet normal 0.923879532511288 -0.0 -0.382683432365088
outer loop
vertex 2.07549524098422 35.0 3.11370330515627
vertex 2.22534587474117 30.0 3.47547473750249
vertex 2.07549524098422 30.0 3.11370330515627
endloop
endfacet
facet normal 0.923879532511288 -0.0 -0.382683432365088
outer loop
vertex 2.22534587474117 30.0 3.47547473750249
vertex 2.07549524098422 35.0 3.11370330515627
vertex 2.22534587474117 35.0 3.47547473750249
endloop
endfacet
facet normal 0.99144486137381 -0.0 -0.130526192220052
outer loop
vertex 2.22534587474117 35.0 3.47547473750249
vertex 2.27645713530757 30.0 3.86370330515627
vertex 2.22534587474117 30.0 3.47547473750249
endloop
endfacet
facet normal 0.99144486137381 -0.0 -0.130526192220052
outer loop
vertex 2.27645713530757 30.0 3.86370330515627
vertex 2.22534587474117 35.0 3.47547473750249
vertex 2.27645713530757 35.0 3.86370330515627
endloop
endfacet
facet normal 0.99144486137381 -0.0 0.130526192220052
outer loop
vertex 2.27645713530757 35.0 3.86370330515627
vertex 2.22534587474117 30.0 4.25193187281005
vertex 2.27645713530757 30.0 3.86370330515627
endloop
endfacet
facet normal 0.99144486137381 -0.0 0.130526192220052
outer loop
vertex 2.22534587474117 30.0 4.25193187281005
vertex 2.27645713530757 35.0 3.86370330515627
vertex 2.22534587474117 35.0 4.25193187281005
endloop
endfacet
facet normal 0.923879532511287 -0.0 0.382683432365088
outer loop
vertex 2.22534587474117 35.0 4.25193187281005
vertex 2.07549524098422 30.0 4.61370330515627
vertex 2.22534587474117 30.0 4.25193187281005
endloop
endfacet
facet normal 0.923879532511287 -0.0 0.382683432365088
outer loop
vertex 2.07549524098422 30.0 4.61370330515627
vertex 2.22534587474117 35.0 4.25193187281005
vertex 2.07549524098422 35.0 4.61370330515627
endloop
endfacet
facet normal 0.793353340291234 -0.0 0.608761429008722
outer loop
vertex 2.07549524098422 35.0 4.61370330515627
vertex 1.83711730708739 30.0 4.92436347693609
vertex 2.07549524098422 30.0 4.61370330515627
endloop
endfacet
facet normal 0.793353340291234 -0.0 0.608761429008722
outer loop
vertex 1.83711730708739 30.0 4.92436347693609
vertex 2.07549524098422 35.0 4.61370330515627
vertex 1.83711730708739 35.0 4.92436347693609
endloop
endfacet
facet normal 0.608761429008722 -0.0 0.793353340291234
outer loop
vertex 1.83711730708739 30.0 4.92436347693609
vertex 1.52645713530757 35.0 5.16274141083293
vertex 1.52645713530757 30.0 5.16274141083293
endloop
endfacet
facet normal 0.608761429008722 -0.0 0.793353340291234
outer loop
vertex 1.52645713530757 35.0 5.16274141083293
vertex 1.83711730708739 30.0 4.92436347693609
vertex 1.83711730708739 35.0 4.92436347693609
endloop
endfacet
facet normal 0.382683432365091 -0.0 0.923879532511286
outer loop
vertex 1.52645713530757 30.0 5.16274141083293
vertex 1.16468570296135 35.0 5.31259204458987
vertex 1.16468570296135 30.0 5.31259204458987
endloop
endfacet
facet normal 0.382683432365091 -0.0 0.923879532511286
outer loop
vertex 1.16468570296135 35.0 5.31259204458987
vertex 1.52645713530757 30.0 5.16274141083293
vertex 1.52645713530757 35.0 5.16274141083293
endloop
endfacet
endsolid windmill fin 2
