solid windmill top adapter
facet normal -0.923879532511287 0.382683432365089 1.48592743461663e-033
outer loop
vertex 3.09096264412502 -0.828220944328065 8.0
vertex 2.77128129211021 -1.6 9.16489106828067e-015
vertex 2.77128129211021 -1.6 8.0
endloop
endfacet
facet normal -0.923879532511287 0.382683432365089 1.48592743461663e-033
outer loop
vertex 2.77128129211021 -1.6 9.16489106828067e-015
vertex 3.09096264412502 -0.828220944328065 8.0
vertex 3.09096264412502 -0.828220944328065 9.16489106828067e-015
endloop
endfacet
facet normal -0.793353340291235 0.608761429008721 1.73418083625315e-018
outer loop
vertex 2.77128129211021 -1.6 8.0
vertex 2.26274169979695 -2.26274169979695 9.16489106828067e-015
vertex 2.26274169979695 -2.26274169979695 8.0
endloop
endfacet
facet normal -0.793353340291235 0.608761429008721 1.73418083625315e-018
outer loop
vertex 2.26274169979695 -2.26274169979695 9.16489106828067e-015
vertex 2.77128129211021 -1.6 8.0
vertex 2.77128129211021 -1.6 9.16489106828067e-015
endloop
endfacet
facet normal -0.608761429008721 0.793353340291235 -0.0
outer loop
vertex 1.6 -2.7712812921102 8.0
vertex 2.26274169979695 -2.26274169979695 9.16489106828067e-015
vertex 1.6 -2.7712812921102 9.16489106828067e-015
endloop
endfacet
facet normal -0.608761429008721 0.793353340291235 -0.0
outer loop
vertex 2.26274169979695 -2.26274169979695 9.16489106828067e-015
vertex 1.6 -2.7712812921102 8.0
vertex 2.26274169979695 -2.26274169979695 8.0
endloop
endfacet
facet normal -0.38268343236509 0.923879532511287 2.84438244804543e-033
outer loop
vertex 0.828220944328069 -3.09096264412502 8.0
vertex 1.6 -2.7712812921102 9.16489106828067e-015
vertex 0.828220944328069 -3.09096264412502 9.16489106828067e-015
endloop
endfacet
facet normal -0.38268343236509 0.923879532511287 2.84438244804543e-033
outer loop
vertex 1.6 -2.7712812921102 9.16489106828067e-015
vertex 0.828220944328069 -3.09096264412502 8.0
vertex 1.6 -2.7712812921102 8.0
endloop
endfacet
facet normal -0.130526192220052 0.99144486137381 -0.0
outer loop
vertex 0.0 -3.2 8.0
vertex 0.828220944328069 -3.09096264412502 9.16489106828067e-015
vertex 0.0 -3.2 9.16489106828067e-015
endloop
endfacet
facet normal -0.130526192220052 0.99144486137381 -0.0
outer loop
vertex 0.828220944328069 -3.09096264412502 9.16489106828067e-015
vertex 0.0 -3.2 8.0
vertex 0.828220944328069 -3.09096264412502 8.0
endloop
endfacet
facet normal 0.130526192220052 0.99144486137381 -0.0
outer loop
vertex -0.828220944328066 -3.09096264412502 8.0
vertex 0.0 -3.2 9.16489106828067e-015
vertex -0.828220944328066 -3.09096264412502 9.16489106828067e-015
endloop
endfacet
facet normal 0.130526192220052 0.99144486137381 -0.0
outer loop
vertex 0.0 -3.2 9.16489106828067e-015
vertex -0.828220944328066 -3.09096264412502 8.0
vertex 0.0 -3.2 8.0
endloop
endfacet
facet normal 0.38268343236509 0.923879532511287 -0.0
outer loop
vertex -1.6 -2.7712812921102 8.0
vertex -0.828220944328066 -3.09096264412502 9.16489106828067e-015
vertex -1.6 -2.7712812921102 9.16489106828067e-015
endloop
endfacet
facet normal 0.38268343236509 0.923879532511287 -0.0
outer loop
vertex -0.828220944328066 -3.09096264412502 9.16489106828067e-015
vertex -1.6 -2.7712812921102 8.0
vertex -0.828220944328066 -3.09096264412502 8.0
endloop
endfacet
facet normal 0.608761429008721 0.793353340291235 -7.16754795178404e-034
outer loop
vertex -2.26274169979695 -2.26274169979695 8.0
vertex -1.6 -2.7712812921102 9.16489106828067e-015
vertex -2.26274169979695 -2.26274169979695 9.16489106828067e-015
endloop
endfacet
facet normal 0.608761429008721 0.793353340291235 -7.16754795178404e-034
outer loop
vertex -1.6 -2.7712812921102 9.16489106828067e-015
vertex -2.26274169979695 -2.26274169979695 8.0
vertex -1.6 -2.7712812921102 8.0
endloop
endfacet
facet normal 0.793353340291235 0.608761429008721 3.08052398923512e-033
outer loop
vertex -2.7712812921102 -1.6 9.16489106828067e-015
vertex -2.26274169979695 -2.26274169979695 8.0
vertex -2.26274169979695 -2.26274169979695 9.16489106828067e-015
endloop
endfacet
facet normal 0.793353340291235 0.608761429008721 3.08052398923512e-033
outer loop
vertex -2.26274169979695 -2.26274169979695 8.0
vertex -2.7712812921102 -1.6 9.16489106828067e-015
vertex -2.7712812921102 -1.6 8.0
endloop
endfacet
facet normal 0.923879532511287 0.38268343236509 -0.0
outer loop
vertex -3.09096264412502 -0.828220944328067 9.16489106828067e-015
vertex -2.7712812921102 -1.6 8.0
vertex -2.7712812921102 -1.6 9.16489106828067e-015
endloop
endfacet
facet normal 0.923879532511287 0.38268343236509 -0.0
outer loop
vertex -2.7712812921102 -1.6 8.0
vertex -3.09096264412502 -0.828220944328067 9.16489106828067e-015
vertex -3.09096264412502 -0.828220944328067 8.0
endloop
endfacet
facet normal 0.99144486137381 0.130526192220052 -3.84969662867336e-033
outer loop
vertex -3.2 -1.95943487863576e-016 9.16489106828067e-015
vertex -3.09096264412502 -0.828220944328067 8.0
vertex -3.09096264412502 -0.828220944328067 9.16489106828067e-015
endloop
endfacet
facet normal 0.99144486137381 0.130526192220052 -3.84969662867336e-033
outer loop
vertex -3.09096264412502 -0.828220944328067 8.0
vertex -3.2 -1.95943487863576e-016 9.16489106828067e-015
vertex -3.2 -1.95943487863576e-016 8.0
endloop
endfacet
facet normal 0.99144486137381 -0.130526192220052 -2.53411088059313e-034
outer loop
vertex -3.09096264412502 0.828220944328066 9.16489106828067e-015
vertex -3.2 -1.95943487863576e-016 8.0
vertex -3.2 -1.95943487863576e-016 9.16489106828067e-015
endloop
endfacet
facet normal 0.99144486137381 -0.130526192220052 -2.53411088059313e-034
outer loop
vertex -3.2 -1.95943487863576e-016 8.0
vertex -3.09096264412502 0.828220944328066 9.16489106828067e-015
vertex -3.09096264412502 0.828220944328066 8.0
endloop
endfacet
facet normal 0.923879532511287 -0.38268343236509 -0.0
outer loop
vertex -2.7712812921102 1.6 9.16489106828067e-015
vertex -3.09096264412502 0.828220944328066 8.0
vertex -3.09096264412502 0.828220944328066 9.16489106828067e-015
endloop
endfacet
facet normal 0.923879532511287 -0.38268343236509 -0.0
outer loop
vertex -3.09096264412502 0.828220944328066 8.0
vertex -2.7712812921102 1.6 9.16489106828067e-015
vertex -2.7712812921102 1.6 8.0
endloop
endfacet
facet normal 0.793353340291235 -0.60876142900872 -3.08052398923512e-033
outer loop
vertex -2.26274169979695 2.26274169979695 9.16489106828067e-015
vertex -2.7712812921102 1.6 8.0
vertex -2.7712812921102 1.6 9.16489106828067e-015
endloop
endfacet
facet normal 0.793353340291235 -0.60876142900872 -3.08052398923512e-033
outer loop
vertex -2.7712812921102 1.6 8.0
vertex -2.26274169979695 2.26274169979695 9.16489106828067e-015
vertex -2.26274169979695 2.26274169979695 8.0
endloop
endfacet
facet normal 0.608761429008721 -0.793353340291235 -6.16104797847024e-033
outer loop
vertex -1.6 2.7712812921102 8.0
vertex -2.26274169979695 2.26274169979695 9.16489106828067e-015
vertex -1.6 2.7712812921102 9.16489106828067e-015
endloop
endfacet
facet normal 0.608761429008721 -0.793353340291235 -6.16104797847024e-033
outer loop
vertex -2.26274169979695 2.26274169979695 9.16489106828067e-015
vertex -1.6 2.7712812921102 8.0
vertex -2.26274169979695 2.26274169979695 8.0
endloop
endfacet
facet normal 0.38268343236509 -0.923879532511287 -4.33030988266207e-033
outer loop
vertex -0.828220944328067 3.09096264412502 8.0
vertex -1.6 2.7712812921102 9.16489106828067e-015
vertex -0.828220944328067 3.09096264412502 9.16489106828067e-015
endloop
endfacet
facet normal 0.38268343236509 -0.923879532511287 -4.33030988266207e-033
outer loop
vertex -1.6 2.7712812921102 9.16489106828067e-015
vertex -0.828220944328067 3.09096264412502 8.0
vertex -1.6 2.7712812921102 8.0
endloop
endfacet
facet normal 0.130526192220052 -0.99144486137381 -3.84969662867336e-033
outer loop
vertex -3.91886975727153e-016 3.2 8.0
vertex -0.828220944328067 3.09096264412502 9.16489106828067e-015
vertex -3.91886975727153e-016 3.2 9.16489106828067e-015
endloop
endfacet
facet normal 0.130526192220052 -0.99144486137381 -3.84969662867336e-033
outer loop
vertex -0.828220944328067 3.09096264412502 9.16489106828067e-015
vertex -3.91886975727153e-016 3.2 8.0
vertex -0.828220944328067 3.09096264412502 8.0
endloop
endfacet
facet normal -0.793353340291235 -0.608761429008721 0.0
outer loop
vertex 2.26274169979695 2.26274169979695 8.0
vertex 2.7712812921102 1.6 9.16489106828067e-015
vertex 2.7712812921102 1.6 8.0
endloop
endfacet
facet normal -0.793353340291235 -0.608761429008721 0.0
outer loop
vertex 2.7712812921102 1.6 9.16489106828067e-015
vertex 2.26274169979695 2.26274169979695 8.0
vertex 2.26274169979695 2.26274169979695 9.16489106828067e-015
endloop
endfacet
facet normal -0.923879532511287 -0.38268343236509 3.58734616535375e-033
outer loop
vertex 2.7712812921102 1.6 8.0
vertex 3.09096264412502 0.828220944328069 9.16489106828067e-015
vertex 3.09096264412502 0.828220944328069 8.0
endloop
endfacet
facet normal -0.923879532511287 -0.38268343236509 3.58734616535375e-033
outer loop
vertex 3.09096264412502 0.828220944328069 9.16489106828067e-015
vertex 2.7712812921102 1.6 8.0
vertex 2.7712812921102 1.6 9.16489106828067e-015
endloop
endfacet
facet normal -0.382683432365089 -0.923879532511287 7.42963717308318e-034
outer loop
vertex 1.6 2.7712812921102 8.0
vertex 0.828220944328065 3.09096264412502 9.16489106828067e-015
vertex 1.6 2.7712812921102 9.16489106828067e-015
endloop
endfacet
facet normal -0.382683432365089 -0.923879532511287 7.42963717308318e-034
outer loop
vertex 0.828220944328065 3.09096264412502 9.16489106828067e-015
vertex 1.6 2.7712812921102 8.0
vertex 0.828220944328065 3.09096264412502 8.0
endloop
endfacet
facet normal -0.60876142900872 -0.793353340291235 3.08052398923512e-033
outer loop
vertex 2.26274169979695 2.26274169979695 8.0
vertex 1.6 2.7712812921102 9.16489106828067e-015
vertex 2.26274169979695 2.26274169979695 9.16489106828067e-015
endloop
endfacet
facet normal -0.60876142900872 -0.793353340291235 3.08052398923512e-033
outer loop
vertex 1.6 2.7712812921102 9.16489106828067e-015
vertex 2.26274169979695 2.26274169979695 8.0
vertex 1.6 2.7712812921102 8.0
endloop
endfacet
facet normal -0.130526192220051 -0.99144486137381 3.84969662867336e-033
outer loop
vertex 0.828220944328065 3.09096264412502 8.0
vertex -3.91886975727153e-016 3.2 9.16489106828067e-015
vertex 0.828220944328065 3.09096264412502 9.16489106828067e-015
endloop
endfacet
facet normal -0.130526192220051 -0.99144486137381 3.84969662867336e-033
outer loop
vertex -3.91886975727153e-016 3.2 9.16489106828067e-015
vertex 0.828220944328065 3.09096264412502 8.0
vertex -3.91886975727153e-016 3.2 8.0
endloop
endfacet
facet normal -0.99144486137381 -0.130526192220052 1.26705544029657e-034
outer loop
vertex 3.09096264412502 0.828220944328069 8.0
vertex 3.2 5.8783046359073e-016 9.16489106828067e-015
vertex 3.2 5.8783046359073e-016 8.0
endloop
endfacet
facet normal -0.99144486137381 -0.130526192220052 1.26705544029657e-034
outer loop
vertex 3.2 5.8783046359073e-016 9.16489106828067e-015
vertex 3.09096264412502 0.828220944328069 8.0
vertex 3.09096264412502 0.828220944328069 9.16489106828067e-015
endloop
endfacet
facet normal -0.99144486137381 0.130526192220051 -5.70631040877731e-019
outer loop
vertex 3.2 5.8783046359073e-016 8.0
vertex 3.09096264412502 -0.828220944328065 9.16489106828067e-015
vertex 3.09096264412502 -0.828220944328065 8.0
endloop
endfacet
facet normal -0.99144486137381 0.130526192220051 -5.70631040877731e-019
outer loop
vertex 3.09096264412502 -0.828220944328065 9.16489106828067e-015
vertex 3.2 5.8783046359073e-016 8.0
vertex 3.2 5.8783046359073e-016 9.16489106828067e-015
endloop
endfacet
facet normal -0.793353340291235 0.608761429008721 -5.44429318329184e-033
outer loop
vertex -2.9698484809835 2.9698484809835 8.0
vertex -3.63730669589464 2.1 7.75490782700672e-015
vertex -3.63730669589464 2.1 8.0
endloop
endfacet
facet normal -0.793353340291235 0.608761429008721 -5.44429318329184e-033
outer loop
vertex -3.63730669589464 2.1 7.75490782700672e-015
vertex -2.9698484809835 2.9698484809835 8.0
vertex -2.9698484809835 2.9698484809835 7.75490782700672e-015
endloop
endfacet
facet normal -0.608761429008721 0.793353340291235 -6.16104797847024e-033
outer loop
vertex -2.9698484809835 2.9698484809835 8.0
vertex -2.1 3.63730669589464 7.75490782700672e-015
vertex -2.9698484809835 2.9698484809835 7.75490782700672e-015
endloop
endfacet
facet normal -0.608761429008721 0.793353340291235 -6.16104797847024e-033
outer loop
vertex -2.1 3.63730669589464 7.75490782700672e-015
vertex -2.9698484809835 2.9698484809835 8.0
vertex -2.1 3.63730669589464 8.0
endloop
endfacet
facet normal -0.38268343236509 0.923879532511287 1.67300556020977e-018
outer loop
vertex -2.1 3.63730669589464 8.0
vertex -1.08703998943059 4.05688847041409 7.75490782700672e-015
vertex -2.1 3.63730669589464 7.75490782700672e-015
endloop
endfacet
facet normal -0.38268343236509 0.923879532511287 1.67300556020977e-018
outer loop
vertex -1.08703998943059 4.05688847041409 7.75490782700672e-015
vertex -2.1 3.63730669589464 8.0
vertex -1.08703998943059 4.05688847041409 8.0
endloop
endfacet
facet normal -0.130526192220052 0.99144486137381 -1.1124276753272e-018
outer loop
vertex -1.08703998943059 4.05688847041409 8.0
vertex -2.57175827820944e-016 4.2 7.75490782700672e-015
vertex -1.08703998943059 4.05688847041409 7.75490782700672e-015
endloop
endfacet
facet normal -0.130526192220052 0.99144486137381 -1.1124276753272e-018
outer loop
vertex -2.57175827820944e-016 4.2 7.75490782700672e-015
vertex -1.08703998943059 4.05688847041409 8.0
vertex -2.57175827820944e-016 4.2 8.0
endloop
endfacet
facet normal 0.130526192220052 0.99144486137381 -5.41796634449469e-019
outer loop
vertex -2.57175827820944e-016 4.2 8.0
vertex 1.08703998943059 4.05688847041409 7.75490782700672e-015
vertex -2.57175827820944e-016 4.2 7.75490782700672e-015
endloop
endfacet
facet normal 0.130526192220052 0.99144486137381 -5.41796634449469e-019
outer loop
vertex 1.08703998943059 4.05688847041409 7.75490782700672e-015
vertex -2.57175827820944e-016 4.2 8.0
vertex 1.08703998943059 4.05688847041409 8.0
endloop
endfacet
facet normal 0.382683432365089 0.923879532511287 1.67300556020978e-018
outer loop
vertex 1.08703998943059 4.05688847041409 8.0
vertex 2.1 3.63730669589464 7.75490782700672e-015
vertex 1.08703998943059 4.05688847041409 7.75490782700672e-015
endloop
endfacet
facet normal 0.382683432365089 0.923879532511287 1.67300556020978e-018
outer loop
vertex 2.1 3.63730669589464 7.75490782700672e-015
vertex 1.08703998943059 4.05688847041409 8.0
vertex 2.1 3.63730669589464 8.0
endloop
endfacet
facet normal 0.608761429008721 0.793353340291235 -7.16754795178405e-034
outer loop
vertex 2.1 3.63730669589464 8.0
vertex 2.9698484809835 2.9698484809835 7.75490782700672e-015
vertex 2.1 3.63730669589464 7.75490782700672e-015
endloop
endfacet
facet normal 0.608761429008721 0.793353340291235 -7.16754795178405e-034
outer loop
vertex 2.9698484809835 2.9698484809835 7.75490782700672e-015
vertex 2.1 3.63730669589464 8.0
vertex 2.9698484809835 2.9698484809835 8.0
endloop
endfacet
facet normal -0.923879532511287 0.382683432365089 7.17469233070749e-033
outer loop
vertex -3.63730669589464 2.1 8.0
vertex -4.05688847041409 1.08703998943059 7.75490782700672e-015
vertex -4.05688847041409 1.08703998943059 8.0
endloop
endfacet
facet normal -0.923879532511287 0.382683432365089 7.17469233070749e-033
outer loop
vertex -4.05688847041409 1.08703998943059 7.75490782700672e-015
vertex -3.63730669589464 2.1 8.0
vertex -3.63730669589464 2.1 7.75490782700672e-015
endloop
endfacet
facet normal 0.0 0.0 1.0
outer loop
vertex -2.9698484809835 -2.9698484809835 8.0
vertex -3.2 -1.95943487863576e-016 8.0
vertex -3.63730669589464 -2.1 8.0
endloop
endfacet
facet normal 0.0 0.0 1.0
outer loop
vertex -3.2 -1.95943487863576e-016 8.0
vertex -2.9698484809835 -2.9698484809835 8.0
vertex -3.09096264412502 -0.828220944328067 8.0
endloop
endfacet
facet normal 0.0 0.0 1.0
outer loop
vertex -3.09096264412502 -0.828220944328067 8.0
vertex -2.9698484809835 -2.9698484809835 8.0
vertex -2.7712812921102 -1.6 8.0
endloop
endfacet
facet normal 0.0 0.0 1.0
outer loop
vertex -2.7712812921102 -1.6 8.0
vertex -2.9698484809835 -2.9698484809835 8.0
vertex -2.1 -3.63730669589464 8.0
endloop
endfacet
facet normal 0.0 0.0 1.0
outer loop
vertex -2.7712812921102 -1.6 8.0
vertex -2.1 -3.63730669589464 8.0
vertex -2.26274169979695 -2.26274169979695 8.0
endloop
endfacet
facet normal 0.0 0.0 1.0
outer loop
vertex -2.26274169979695 -2.26274169979695 8.0
vertex -2.1 -3.63730669589464 8.0
vertex -1.6 -2.7712812921102 8.0
endloop
endfacet
facet normal 0.0 0.0 1.0
outer loop
vertex -1.6 -2.7712812921102 8.0
vertex -2.1 -3.63730669589464 8.0
vertex -1.08703998943059 -4.05688847041409 8.0
endloop
endfacet
facet normal 0.0 0.0 1.0
outer loop
vertex -1.6 -2.7712812921102 8.0
vertex -1.08703998943059 -4.05688847041409 8.0
vertex -0.828220944328066 -3.09096264412502 8.0
endloop
endfacet
facet normal 0.0 0.0 1.0
outer loop
vertex -0.828220944328066 -3.09096264412502 8.0
vertex -1.08703998943059 -4.05688847041409 8.0
vertex 7.71527483462832e-016 -4.2 8.0
endloop
endfacet
facet normal 0.0 0.0 1.0
outer loop
vertex -0.828220944328066 -3.09096264412502 8.0
vertex 7.71527483462832e-016 -4.2 8.0
vertex 0.0 -3.2 8.0
endloop
endfacet
facet normal 0.0 0.0 1.0
outer loop
vertex 0.0 -3.2 8.0
vertex 7.71527483462832e-016 -4.2 8.0
vertex 0.828220944328069 -3.09096264412502 8.0
endloop
endfacet
facet normal 0.0 0.0 1.0
outer loop
vertex 0.828220944328069 -3.09096264412502 8.0
vertex 7.71527483462832e-016 -4.2 8.0
vertex 1.08703998943059 -4.05688847041409 8.0
endloop
endfacet
facet normal 0.0 0.0 1.0
outer loop
vertex 0.828220944328069 -3.09096264412502 8.0
vertex 1.08703998943059 -4.05688847041409 8.0
vertex 1.6 -2.7712812921102 8.0
endloop
endfacet
facet normal 0.0 0.0 1.0
outer loop
vertex 1.6 -2.7712812921102 8.0
vertex 1.08703998943059 -4.05688847041409 8.0
vertex 2.1 -3.63730669589464 8.0
endloop
endfacet
facet normal 0.0 0.0 1.0
outer loop
vertex 1.6 -2.7712812921102 8.0
vertex 2.1 -3.63730669589464 8.0
vertex 2.26274169979695 -2.26274169979695 8.0
endloop
endfacet
facet normal 0.0 0.0 1.0
outer loop
vertex 2.26274169979695 -2.26274169979695 8.0
vertex 2.1 -3.63730669589464 8.0
vertex 2.9698484809835 -2.9698484809835 8.0
endloop
endfacet
facet normal 0.0 0.0 1.0
outer loop
vertex 2.26274169979695 -2.26274169979695 8.0
vertex 2.9698484809835 -2.9698484809835 8.0
vertex 2.77128129211021 -1.6 8.0
endloop
endfacet
facet normal 0.0 0.0 1.0
outer loop
vertex 2.77128129211021 -1.6 8.0
vertex 2.9698484809835 -2.9698484809835 8.0
vertex 3.09096264412502 -0.828220944328065 8.0
endloop
endfacet
facet normal 0.0 0.0 1.0
outer loop
vertex 3.09096264412502 -0.828220944328065 8.0
vertex 2.9698484809835 -2.9698484809835 8.0
vertex 3.63730669589464 -2.1 8.0
endloop
endfacet
facet normal 0.0 0.0 1.0
outer loop
vertex 3.09096264412502 -0.828220944328065 8.0
vertex 3.63730669589464 -2.1 8.0
vertex 3.2 5.8783046359073e-016 8.0
endloop
endfacet
facet normal 0.0 0.0 1.0
outer loop
vertex 3.2 5.8783046359073e-016 8.0
vertex 3.63730669589464 -2.1 8.0
vertex 3.63730669589464 2.1 8.0
endloop
endfacet
facet normal 0.0 0.0 1.0
outer loop
vertex 3.63730669589464 2.1 8.0
vertex 3.63730669589464 -2.1 8.0
vertex 4.05688847041409 1.08703998943059 8.0
endloop
endfacet
facet normal 0.0 0.0 1.0
outer loop
vertex 4.05688847041409 1.08703998943059 8.0
vertex 3.63730669589464 -2.1 8.0
vertex 4.05688847041409 -1.08703998943059 8.0
endloop
endfacet
facet normal 0.0 0.0 1.0
outer loop
vertex 4.05688847041409 1.08703998943059 8.0
vertex 4.05688847041409 -1.08703998943059 8.0
vertex 4.2 5.14351655641888e-016 8.0
endloop
endfacet
facet normal 0.0 0.0 1.0
outer loop
vertex -4.05688847041409 -1.08703998943059 8.0
vertex -4.05688847041409 1.08703998943059 8.0
vertex -4.2 0.0 8.0
endloop
endfacet
facet normal 0.0 0.0 1.0
outer loop
vertex -4.05688847041409 1.08703998943059 8.0
vertex -4.05688847041409 -1.08703998943059 8.0
vertex -3.63730669589464 2.1 8.0
endloop
endfacet
facet normal 0.0 0.0 1.0
outer loop
vertex -3.63730669589464 2.1 8.0
vertex -4.05688847041409 -1.08703998943059 8.0
vertex -3.63730669589464 -2.1 8.0
endloop
endfacet
facet normal 0.0 0.0 1.0
outer loop
vertex -3.63730669589464 2.1 8.0
vertex -3.63730669589464 -2.1 8.0
vertex -2.9698484809835 2.9698484809835 8.0
endloop
endfacet
facet normal 0.0 0.0 1.0
outer loop
vertex -2.9698484809835 2.9698484809835 8.0
vertex -3.63730669589464 -2.1 8.0
vertex -3.2 -1.95943487863576e-016 8.0
endloop
endfacet
facet normal 0.0 0.0 1.0
outer loop
vertex -2.9698484809835 2.9698484809835 8.0
vertex -3.2 -1.95943487863576e-016 8.0
vertex -3.09096264412502 0.828220944328066 8.0
endloop
endfacet
facet normal 0.0 0.0 1.0
outer loop
vertex -2.9698484809835 2.9698484809835 8.0
vertex -3.09096264412502 0.828220944328066 8.0
vertex -2.7712812921102 1.6 8.0
endloop
endfacet
facet normal 0.0 0.0 1.0
outer loop
vertex -2.9698484809835 2.9698484809835 8.0
vertex -2.7712812921102 1.6 8.0
vertex -2.1 3.63730669589464 8.0
endloop
endfacet
facet normal 0.0 0.0 1.0
outer loop
vertex -2.1 3.63730669589464 8.0
vertex -2.7712812921102 1.6 8.0
vertex -2.26274169979695 2.26274169979695 8.0
endloop
endfacet
facet normal 0.0 0.0 1.0
outer loop
vertex -2.1 3.63730669589464 8.0
vertex -2.26274169979695 2.26274169979695 8.0
vertex -1.6 2.7712812921102 8.0
endloop
endfacet
facet normal 0.0 0.0 1.0
outer loop
vertex -2.1 3.63730669589464 8.0
vertex -1.6 2.7712812921102 8.0
vertex -1.08703998943059 4.05688847041409 8.0
endloop
endfacet
facet normal 0.0 0.0 1.0
outer loop
vertex -1.08703998943059 4.05688847041409 8.0
vertex -1.6 2.7712812921102 8.0
vertex -0.828220944328067 3.09096264412502 8.0
endloop
endfacet
facet normal 0.0 0.0 1.0
outer loop
vertex -1.08703998943059 4.05688847041409 8.0
vertex -0.828220944328067 3.09096264412502 8.0
vertex -2.57175827820944e-016 4.2 8.0
endloop
endfacet
facet normal 0.0 0.0 1.0
outer loop
vertex -2.57175827820944e-016 4.2 8.0
vertex -0.828220944328067 3.09096264412502 8.0
vertex -3.91886975727153e-016 3.2 8.0
endloop
endfacet
facet normal 0.0 0.0 1.0
outer loop
vertex -2.57175827820944e-016 4.2 8.0
vertex -3.91886975727153e-016 3.2 8.0
vertex 0.828220944328065 3.09096264412502 8.0
endloop
endfacet
facet normal 0.0 0.0 1.0
outer loop
vertex -2.57175827820944e-016 4.2 8.0
vertex 0.828220944328065 3.09096264412502 8.0
vertex 1.08703998943059 4.05688847041409 8.0
endloop
endfacet
facet normal 0.0 0.0 1.0
outer loop
vertex 1.08703998943059 4.05688847041409 8.0
vertex 0.828220944328065 3.09096264412502 8.0
vertex 1.6 2.7712812921102 8.0
endloop
endfacet
facet normal 0.0 0.0 1.0
outer loop
vertex 1.08703998943059 4.05688847041409 8.0
vertex 1.6 2.7712812921102 8.0
vertex 2.1 3.63730669589464 8.0
endloop
endfacet
facet normal 0.0 0.0 1.0
outer loop
vertex 2.1 3.63730669589464 8.0
vertex 1.6 2.7712812921102 8.0
vertex 2.26274169979695 2.26274169979695 8.0
endloop
endfacet
facet normal 0.0 0.0 1.0
outer loop
vertex 2.1 3.63730669589464 8.0
vertex 2.26274169979695 2.26274169979695 8.0
vertex 2.9698484809835 2.9698484809835 8.0
endloop
endfacet
facet normal 0.0 0.0 1.0
outer loop
vertex 2.9698484809835 2.9698484809835 8.0
vertex 2.26274169979695 2.26274169979695 8.0
vertex 2.7712812921102 1.6 8.0
endloop
endfacet
facet normal 0.0 0.0 1.0
outer loop
vertex 2.9698484809835 2.9698484809835 8.0
vertex 2.7712812921102 1.6 8.0
vertex 3.09096264412502 0.828220944328069 8.0
endloop
endfacet
facet normal 0.0 0.0 1.0
outer loop
vertex 2.9698484809835 2.9698484809835 8.0
vertex 3.09096264412502 0.828220944328069 8.0
vertex 3.63730669589464 2.1 8.0
endloop
endfacet
facet normal 0.0 0.0 1.0
outer loop
vertex 3.63730669589464 2.1 8.0
vertex 3.09096264412502 0.828220944328069 8.0
vertex 3.2 5.8783046359073e-016 8.0
endloop
endfacet
facet normal -0.99144486137381 0.130526192220052 -5.41796634449469e-019
outer loop
vertex -4.05688847041409 1.08703998943059 8.0
vertex -4.2 0.0 7.75490782700672e-015
vertex -4.2 0.0 8.0
endloop
endfacet
facet normal -0.99144486137381 0.130526192220052 -5.41796634449469e-019
outer loop
vertex -4.2 0.0 7.75490782700672e-015
vertex -4.05688847041409 1.08703998943059 8.0
vertex -4.05688847041409 1.08703998943059 7.75490782700672e-015
endloop
endfacet
facet normal -0.99144486137381 -0.130526192220052 0.0
outer loop
vertex -4.2 0.0 8.0
vertex -4.05688847041409 -1.08703998943059 7.75490782700672e-015
vertex -4.05688847041409 -1.08703998943059 8.0
endloop
endfacet
facet normal -0.99144486137381 -0.130526192220052 0.0
outer loop
vertex -4.05688847041409 -1.08703998943059 7.75490782700672e-015
vertex -4.2 0.0 8.0
vertex -4.2 0.0 7.75490782700672e-015
endloop
endfacet
facet normal -0.923879532511287 -0.38268343236509 0.0
outer loop
vertex -4.05688847041409 -1.08703998943059 8.0
vertex -3.63730669589464 -2.1 7.75490782700672e-015
vertex -3.63730669589464 -2.1 8.0
endloop
endfacet
facet normal -0.923879532511287 -0.38268343236509 0.0
outer loop
vertex -3.63730669589464 -2.1 7.75490782700672e-015
vertex -4.05688847041409 -1.08703998943059 8.0
vertex -4.05688847041409 -1.08703998943059 7.75490782700672e-015
endloop
endfacet
facet normal -0.793353340291235 -0.608761429008721 3.08052398923512e-033
outer loop
vertex -3.63730669589464 -2.1 8.0
vertex -2.9698484809835 -2.9698484809835 7.75490782700672e-015
vertex -2.9698484809835 -2.9698484809835 8.0
endloop
endfacet
facet normal -0.793353340291235 -0.608761429008721 3.08052398923512e-033
outer loop
vertex -2.9698484809835 -2.9698484809835 7.75490782700672e-015
vertex -3.63730669589464 -2.1 8.0
vertex -3.63730669589464 -2.1 7.75490782700672e-015
endloop
endfacet
facet normal -0.60876142900872 -0.793353340291235 5.44429318329184e-033
outer loop
vertex -2.1 -3.63730669589464 8.0
vertex -2.9698484809835 -2.9698484809835 7.75490782700672e-015
vertex -2.1 -3.63730669589464 7.75490782700672e-015
endloop
endfacet
facet normal -0.60876142900872 -0.793353340291235 5.44429318329184e-033
outer loop
vertex -2.9698484809835 -2.9698484809835 7.75490782700672e-015
vertex -2.1 -3.63730669589464 8.0
vertex -2.9698484809835 -2.9698484809835 8.0
endloop
endfacet
facet normal -0.382683432365089 -0.923879532511287 1.67300556020977e-018
outer loop
vertex -1.08703998943059 -4.05688847041409 8.0
vertex -2.1 -3.63730669589464 7.75490782700672e-015
vertex -1.08703998943059 -4.05688847041409 7.75490782700672e-015
endloop
endfacet
facet normal -0.382683432365089 -0.923879532511287 1.67300556020977e-018
outer loop
vertex -2.1 -3.63730669589464 7.75490782700672e-015
vertex -1.08703998943059 -4.05688847041409 8.0
vertex -2.1 -3.63730669589464 8.0
endloop
endfacet
facet normal -0.130526192220051 -0.99144486137381 5.70631040877734e-019
outer loop
vertex 7.71527483462832e-016 -4.2 8.0
vertex -1.08703998943059 -4.05688847041409 7.75490782700672e-015
vertex 7.71527483462832e-016 -4.2 7.75490782700672e-015
endloop
endfacet
facet normal -0.130526192220051 -0.99144486137381 5.70631040877734e-019
outer loop
vertex -1.08703998943059 -4.05688847041409 7.75490782700672e-015
vertex 7.71527483462832e-016 -4.2 8.0
vertex -1.08703998943059 -4.05688847041409 8.0
endloop
endfacet
facet normal 0.130526192220052 -0.99144486137381 -1.26705544029657e-034
outer loop
vertex 1.08703998943059 -4.05688847041409 8.0
vertex 7.71527483462832e-016 -4.2 7.75490782700672e-015
vertex 1.08703998943059 -4.05688847041409 7.75490782700672e-015
endloop
endfacet
facet normal 0.130526192220052 -0.99144486137381 -1.26705544029657e-034
outer loop
vertex 7.71527483462832e-016 -4.2 7.75490782700672e-015
vertex 1.08703998943059 -4.05688847041409 8.0
vertex 7.71527483462832e-016 -4.2 8.0
endloop
endfacet
facet normal 0.38268343236509 -0.923879532511287 -1.48592743461664e-033
outer loop
vertex 2.1 -3.63730669589464 8.0
vertex 1.08703998943059 -4.05688847041409 7.75490782700672e-015
vertex 2.1 -3.63730669589464 7.75490782700672e-015
endloop
endfacet
facet normal 0.38268343236509 -0.923879532511287 -1.48592743461664e-033
outer loop
vertex 1.08703998943059 -4.05688847041409 7.75490782700672e-015
vertex 2.1 -3.63730669589464 8.0
vertex 1.08703998943059 -4.05688847041409 8.0
endloop
endfacet
facet normal 0.608761429008721 -0.793353340291235 0.0
outer loop
vertex 2.9698484809835 -2.9698484809835 8.0
vertex 2.1 -3.63730669589464 7.75490782700672e-015
vertex 2.9698484809835 -2.9698484809835 7.75490782700672e-015
endloop
endfacet
facet normal 0.608761429008721 -0.793353340291235 0.0
outer loop
vertex 2.1 -3.63730669589464 7.75490782700672e-015
vertex 2.9698484809835 -2.9698484809835 8.0
vertex 2.1 -3.63730669589464 8.0
endloop
endfacet
facet normal 0.793353340291235 -0.60876142900872 2.66136751538592e-018
outer loop
vertex 3.63730669589464 -2.1 7.75490782700672e-015
vertex 2.9698484809835 -2.9698484809835 8.0
vertex 2.9698484809835 -2.9698484809835 7.75490782700672e-015
endloop
endfacet
facet normal 0.793353340291235 -0.60876142900872 2.66136751538592e-018
outer loop
vertex 2.9698484809835 -2.9698484809835 8.0
vertex 3.63730669589464 -2.1 7.75490782700672e-015
vertex 3.63730669589464 -2.1 8.0
endloop
endfacet
facet normal 0.923879532511287 -0.38268343236509 7.42963717308318e-034
outer loop
vertex 4.05688847041409 -1.08703998943059 7.75490782700672e-015
vertex 3.63730669589464 -2.1 8.0
vertex 3.63730669589464 -2.1 7.75490782700672e-015
endloop
endfacet
facet normal 0.923879532511287 -0.38268343236509 7.42963717308318e-034
outer loop
vertex 3.63730669589464 -2.1 8.0
vertex 4.05688847041409 -1.08703998943059 7.75490782700672e-015
vertex 4.05688847041409 -1.08703998943059 8.0
endloop
endfacet
facet normal 0.99144486137381 -0.130526192220051 -0.0
outer loop
vertex 4.2 5.14351655641888e-016 7.75490782700672e-015
vertex 4.05688847041409 -1.08703998943059 8.0
vertex 4.05688847041409 -1.08703998943059 7.75490782700672e-015
endloop
endfacet
facet normal 0.99144486137381 -0.130526192220051 -0.0
outer loop
vertex 4.05688847041409 -1.08703998943059 8.0
vertex 4.2 5.14351655641888e-016 7.75490782700672e-015
vertex 4.2 5.14351655641888e-016 8.0
endloop
endfacet
facet normal 0.99144486137381 0.130526192220052 -5.4179663444947e-019
outer loop
vertex 4.05688847041409 1.08703998943059 7.75490782700672e-015
vertex 4.2 5.14351655641888e-016 8.0
vertex 4.2 5.14351655641888e-016 7.75490782700672e-015
endloop
endfacet
facet normal 0.99144486137381 0.130526192220052 -5.4179663444947e-019
outer loop
vertex 4.2 5.14351655641888e-016 8.0
vertex 4.05688847041409 1.08703998943059 7.75490782700672e-015
vertex 4.05688847041409 1.08703998943059 8.0
endloop
endfacet
facet normal 0.923879532511287 0.38268343236509 -7.91765604801581e-033
outer loop
vertex 3.63730669589464 2.1 7.75490782700672e-015
vertex 4.05688847041409 1.08703998943059 8.0
vertex 4.05688847041409 1.08703998943059 7.75490782700672e-015
endloop
endfacet
facet normal 0.923879532511287 0.38268343236509 -7.91765604801581e-033
outer loop
vertex 4.05688847041409 1.08703998943059 8.0
vertex 3.63730669589464 2.1 7.75490782700672e-015
vertex 3.63730669589464 2.1 8.0
endloop
endfacet
facet normal 0.793353340291235 0.608761429008721 2.36376919405672e-033
outer loop
vertex 2.9698484809835 2.9698484809835 7.75490782700672e-015
vertex 3.63730669589464 2.1 8.0
vertex 3.63730669589464 2.1 7.75490782700672e-015
endloop
endfacet
facet normal 0.793353340291235 0.608761429008721 2.36376919405672e-033
outer loop
vertex 3.63730669589464 2.1 8.0
vertex 2.9698484809835 2.9698484809835 7.75490782700672e-015
vertex 2.9698484809835 2.9698484809835 8.0
endloop
endfacet
facet normal -0.0 -0.0 1.0
outer loop
vertex -2.9698484809835 -2.9698484809835 7.75490782700672e-015
vertex -3.2 -1.95943487863576e-016 9.16489106828067e-015
vertex -3.63730669589464 -2.1 7.75490782700672e-015
endloop
endfacet
facet normal -0.0 -0.0 1.0
outer loop
vertex -3.2 -1.95943487863576e-016 9.16489106828067e-015
vertex -2.9698484809835 -2.9698484809835 7.75490782700672e-015
vertex -3.09096264412502 -0.828220944328067 9.16489106828067e-015
endloop
endfacet
facet normal -0.0 -0.0 1.0
outer loop
vertex -3.09096264412502 -0.828220944328067 9.16489106828067e-015
vertex -2.9698484809835 -2.9698484809835 7.75490782700672e-015
vertex -2.7712812921102 -1.6 9.16489106828067e-015
endloop
endfacet
facet normal -0.0 -0.0 1.0
outer loop
vertex -2.7712812921102 -1.6 9.16489106828067e-015
vertex -2.9698484809835 -2.9698484809835 7.75490782700672e-015
vertex -2.1 -3.63730669589464 7.75490782700672e-015
endloop
endfacet
facet normal -0.0 -0.0 1.0
outer loop
vertex -2.7712812921102 -1.6 9.16489106828067e-015
vertex -2.1 -3.63730669589464 7.75490782700672e-015
vertex -2.26274169979695 -2.26274169979695 9.16489106828067e-015
endloop
endfacet
facet normal -0.0 -0.0 1.0
outer loop
vertex -2.26274169979695 -2.26274169979695 9.16489106828067e-015
vertex -2.1 -3.63730669589464 7.75490782700672e-015
vertex -1.6 -2.7712812921102 9.16489106828067e-015
endloop
endfacet
facet normal -0.0 -0.0 1.0
outer loop
vertex -1.6 -2.7712812921102 9.16489106828067e-015
vertex -2.1 -3.63730669589464 7.75490782700672e-015
vertex -1.08703998943059 -4.05688847041409 7.75490782700672e-015
endloop
endfacet
facet normal -0.0 -0.0 1.0
outer loop
vertex -1.6 -2.7712812921102 9.16489106828067e-015
vertex -1.08703998943059 -4.05688847041409 7.75490782700672e-015
vertex -0.828220944328066 -3.09096264412502 9.16489106828067e-015
endloop
endfacet
facet normal -0.0 -0.0 1.0
outer loop
vertex -0.828220944328066 -3.09096264412502 9.16489106828067e-015
vertex -1.08703998943059 -4.05688847041409 7.75490782700672e-015
vertex 7.71527483462832e-016 -4.2 7.75490782700672e-015
endloop
endfacet
facet normal -0.0 -0.0 1.0
outer loop
vertex -0.828220944328066 -3.09096264412502 9.16489106828067e-015
vertex 7.71527483462832e-016 -4.2 7.75490782700672e-015
vertex 0.0 -3.2 9.16489106828067e-015
endloop
endfacet
facet normal -0.0 -0.0 1.0
outer loop
vertex 0.0 -3.2 9.16489106828067e-015
vertex 7.71527483462832e-016 -4.2 7.75490782700672e-015
vertex 0.828220944328069 -3.09096264412502 9.16489106828067e-015
endloop
endfacet
facet normal -0.0 -0.0 1.0
outer loop
vertex 0.828220944328069 -3.09096264412502 9.16489106828067e-015
vertex 7.71527483462832e-016 -4.2 7.75490782700672e-015
vertex 1.08703998943059 -4.05688847041409 7.75490782700672e-015
endloop
endfacet
facet normal -0.0 -0.0 1.0
outer loop
vertex 0.828220944328069 -3.09096264412502 9.16489106828067e-015
vertex 1.08703998943059 -4.05688847041409 7.75490782700672e-015
vertex 1.6 -2.7712812921102 9.16489106828067e-015
endloop
endfacet
facet normal -0.0 -0.0 1.0
outer loop
vertex 1.6 -2.7712812921102 9.16489106828067e-015
vertex 1.08703998943059 -4.05688847041409 7.75490782700672e-015
vertex 2.1 -3.63730669589464 7.75490782700672e-015
endloop
endfacet
facet normal -0.0 -0.0 1.0
outer loop
vertex 1.6 -2.7712812921102 9.16489106828067e-015
vertex 2.1 -3.63730669589464 7.75490782700672e-015
vertex 2.26274169979695 -2.26274169979695 9.16489106828067e-015
endloop
endfacet
facet normal -0.0 -0.0 1.0
outer loop
vertex 2.26274169979695 -2.26274169979695 9.16489106828067e-015
vertex 2.1 -3.63730669589464 7.75490782700672e-015
vertex 2.9698484809835 -2.9698484809835 7.75490782700672e-015
endloop
endfacet
facet normal -0.0 -0.0 1.0
outer loop
vertex 2.26274169979695 -2.26274169979695 9.16489106828067e-015
vertex 2.9698484809835 -2.9698484809835 7.75490782700672e-015
vertex 2.77128129211021 -1.6 9.16489106828067e-015
endloop
endfacet
facet normal -0.0 -0.0 1.0
outer loop
vertex 2.77128129211021 -1.6 9.16489106828067e-015
vertex 2.9698484809835 -2.9698484809835 7.75490782700672e-015
vertex 3.09096264412502 -0.828220944328065 9.16489106828067e-015
endloop
endfacet
facet normal -0.0 -0.0 1.0
outer loop
vertex 3.09096264412502 -0.828220944328065 9.16489106828067e-015
vertex 2.9698484809835 -2.9698484809835 7.75490782700672e-015
vertex 3.63730669589464 -2.1 7.75490782700672e-015
endloop
endfacet
facet normal -0.0 -0.0 1.0
outer loop
vertex 3.09096264412502 -0.828220944328065 9.16489106828067e-015
vertex 3.63730669589464 -2.1 7.75490782700672e-015
vertex 3.2 5.8783046359073e-016 9.16489106828067e-015
endloop
endfacet
facet normal -0.0 -0.0 1.0
outer loop
vertex 3.2 5.8783046359073e-016 9.16489106828067e-015
vertex 3.63730669589464 -2.1 7.75490782700672e-015
vertex 3.63730669589464 2.1 7.75490782700672e-015
endloop
endfacet
facet normal -0.0 -0.0 1.0
outer loop
vertex 3.63730669589464 2.1 7.75490782700672e-015
vertex 3.63730669589464 -2.1 7.75490782700672e-015
vertex 4.05688847041409 1.08703998943059 7.75490782700672e-015
endloop
endfacet
facet normal -0.0 -0.0 1.0
outer loop
vertex 4.05688847041409 1.08703998943059 7.75490782700672e-015
vertex 3.63730669589464 -2.1 7.75490782700672e-015
vertex 4.05688847041409 -1.08703998943059 7.75490782700672e-015
endloop
endfacet
facet normal -0.0 -0.0 1.0
outer loop
vertex 4.05688847041409 1.08703998943059 7.75490782700672e-015
vertex 4.05688847041409 -1.08703998943059 7.75490782700672e-015
vertex 4.2 5.14351655641888e-016 7.75490782700672e-015
endloop
endfacet
facet normal -0.0 -0.0 1.0
outer loop
vertex -4.05688847041409 -1.08703998943059 7.75490782700672e-015
vertex -4.05688847041409 1.08703998943059 7.75490782700672e-015
vertex -4.2 0.0 7.75490782700672e-015
endloop
endfacet
facet normal -0.0 -0.0 1.0
outer loop
vertex -4.05688847041409 1.08703998943059 7.75490782700672e-015
vertex -4.05688847041409 -1.08703998943059 7.75490782700672e-015
vertex -3.63730669589464 2.1 7.75490782700672e-015
endloop
endfacet
facet normal -0.0 -0.0 1.0
outer loop
vertex -3.63730669589464 2.1 7.75490782700672e-015
vertex -4.05688847041409 -1.08703998943059 7.75490782700672e-015
vertex -3.63730669589464 -2.1 7.75490782700672e-015
endloop
endfacet
facet normal -0.0 -0.0 1.0
outer loop
vertex -3.63730669589464 2.1 7.75490782700672e-015
vertex -3.63730669589464 -2.1 7.75490782700672e-015
vertex -2.9698484809835 2.9698484809835 7.75490782700672e-015
endloop
endfacet
facet normal -0.0 -0.0 1.0
outer loop
vertex -2.9698484809835 2.9698484809835 7.75490782700672e-015
vertex -3.63730669589464 -2.1 7.75490782700672e-015
vertex -3.2 -1.95943487863576e-016 9.16489106828067e-015
endloop
endfacet
facet normal -0.0 -0.0 1.0
outer loop
vertex -2.9698484809835 2.9698484809835 7.75490782700672e-015
vertex -3.2 -1.95943487863576e-016 9.16489106828067e-015
vertex -3.09096264412502 0.828220944328066 9.16489106828067e-015
endloop
endfacet
facet normal -0.0 -0.0 1.0
outer loop
vertex -2.9698484809835 2.9698484809835 7.75490782700672e-015
vertex -3.09096264412502 0.828220944328066 9.16489106828067e-015
vertex -2.7712812921102 1.6 9.16489106828067e-015
endloop
endfacet
facet normal -0.0 -0.0 1.0
outer loop
vertex -2.9698484809835 2.9698484809835 7.75490782700672e-015
vertex -2.7712812921102 1.6 9.16489106828067e-015
vertex -2.1 3.63730669589464 7.75490782700672e-015
endloop
endfacet
facet normal -0.0 -0.0 1.0
outer loop
vertex -2.1 3.63730669589464 7.75490782700672e-015
vertex -2.7712812921102 1.6 9.16489106828067e-015
vertex -2.26274169979695 2.26274169979695 9.16489106828067e-015
endloop
endfacet
facet normal -0.0 -0.0 1.0
outer loop
vertex -2.1 3.63730669589464 7.75490782700672e-015
vertex -2.26274169979695 2.26274169979695 9.16489106828067e-015
vertex -1.6 2.7712812921102 9.16489106828067e-015
endloop
endfacet
facet normal -0.0 -0.0 1.0
outer loop
vertex -2.1 3.63730669589464 7.75490782700672e-015
vertex -1.6 2.7712812921102 9.16489106828067e-015
vertex -1.08703998943059 4.05688847041409 7.75490782700672e-015
endloop
endfacet
facet normal -0.0 -0.0 1.0
outer loop
vertex -1.08703998943059 4.05688847041409 7.75490782700672e-015
vertex -1.6 2.7712812921102 9.16489106828067e-015
vertex -0.828220944328067 3.09096264412502 9.16489106828067e-015
endloop
endfacet
facet normal -0.0 -0.0 1.0
outer loop
vertex -1.08703998943059 4.05688847041409 7.75490782700672e-015
vertex -0.828220944328067 3.09096264412502 9.16489106828067e-015
vertex -2.57175827820944e-016 4.2 7.75490782700672e-015
endloop
endfacet
facet normal -0.0 -0.0 1.0
outer loop
vertex -2.57175827820944e-016 4.2 7.75490782700672e-015
vertex -0.828220944328067 3.09096264412502 9.16489106828067e-015
vertex -3.91886975727153e-016 3.2 9.16489106828067e-015
endloop
endfacet
facet normal -0.0 -0.0 1.0
outer loop
vertex -2.57175827820944e-016 4.2 7.75490782700672e-015
vertex -3.91886975727153e-016 3.2 9.16489106828067e-015
vertex 0.828220944328065 3.09096264412502 9.16489106828067e-015
endloop
endfacet
facet normal -0.0 -0.0 1.0
outer loop
vertex -2.57175827820944e-016 4.2 7.75490782700672e-015
vertex 0.828220944328065 3.09096264412502 9.16489106828067e-015
vertex 1.08703998943059 4.05688847041409 7.75490782700672e-015
endloop
endfacet
facet normal -0.0 -0.0 1.0
outer loop
vertex 1.08703998943059 4.05688847041409 7.75490782700672e-015
vertex 0.828220944328065 3.09096264412502 9.16489106828067e-015
vertex 1.6 2.7712812921102 9.16489106828067e-015
endloop
endfacet
facet normal -0.0 -0.0 1.0
outer loop
vertex 1.08703998943059 4.05688847041409 7.75490782700672e-015
vertex 1.6 2.7712812921102 9.16489106828067e-015
vertex 2.1 3.63730669589464 7.75490782700672e-015
endloop
endfacet
facet normal -0.0 -0.0 1.0
outer loop
vertex 2.1 3.63730669589464 7.75490782700672e-015
vertex 1.6 2.7712812921102 9.16489106828067e-015
vertex 2.26274169979695 2.26274169979695 9.16489106828067e-015
endloop
endfacet
facet normal -0.0 -0.0 1.0
outer loop
vertex 2.1 3.63730669589464 7.75490782700672e-015
vertex 2.26274169979695 2.26274169979695 9.16489106828067e-015
vertex 2.9698484809835 2.9698484809835 7.75490782700672e-015
endloop
endfacet
facet normal -0.0 -0.0 1.0
outer loop
vertex 2.9698484809835 2.9698484809835 7.75490782700672e-015
vertex 2.26274169979695 2.26274169979695 9.16489106828067e-015
vertex 2.7712812921102 1.6 9.16489106828067e-015
endloop
endfacet
facet normal -0.0 -0.0 1.0
outer loop
vertex 2.9698484809835 2.9698484809835 7.75490782700672e-015
vertex 2.7712812921102 1.6 9.16489106828067e-015
vertex 3.09096264412502 0.828220944328069 9.16489106828067e-015
endloop
endfacet
facet normal -0.0 -0.0 1.0
outer loop
vertex 2.9698484809835 2.9698484809835 7.75490782700672e-015
vertex 3.09096264412502 0.828220944328069 9.16489106828067e-015
vertex 3.63730669589464 2.1 7.75490782700672e-015
endloop
endfacet
facet normal -0.0 -0.0 1.0
outer loop
vertex 3.63730669589464 2.1 7.75490782700672e-015
vertex 3.09096264412502 0.828220944328069 9.16489106828067e-015
vertex 3.2 5.8783046359073e-016 9.16489106828067e-015
endloop
endfacet
endsolid windmill top adapter
